<svg class="animated" id="freepik_stories-robot-face" xmlns="http://www.w3.org/2000/svg" viewBox="0 0 500 500" version="1.1" xmlns:xlink="http://www.w3.org/1999/xlink" xmlns:svgjs="http://svgjs.com/svgjs"><style>svg#freepik_stories-robot-face:not(.animated) .animable {opacity: 0;}svg#freepik_stories-robot-face.animated #freepik--robot-face--inject-41 {animation: 3s Infinite  linear floating;animation-delay: 0s;}            @keyframes floating {                0% {                    opacity: 1;                    transform: translateY(0px);                }                50% {                    transform: translateY(-10px);                }                100% {                    opacity: 1;                    transform: translateY(0px);                }            }        </style><g id="freepik--background-simple--inject-41" class="animable" style="transform-origin: 246.841px 245.603px;"><path d="M469.65,239.72c-4.95,42-24.12,90.79-62.41,113.22-57.84,33.89-53,86-165.91,108.67a232.73,232.73,0,0,1-50.06,4.73,192.82,192.82,0,0,1-24.58-2C94.93,453.85,46.64,404,28.93,343.76,5.61,264.57,52.17,212.73,83,181.49S136.48,52.93,247.3,29.78a225.2,225.2,0,0,1,51.46-4.89c39.42,1,82.43,13.92,112.19,40.94q3.36,3,6.53,6.31C458.84,114.59,476.42,182.48,469.65,239.72Z" style="fill: rgb(47, 178, 200); transform-origin: 246.841px 245.603px;" id="el20z6xqi4vv6i" class="animable"></path><g id="elkao6riz8xlj"><path d="M469.65,239.72c-4.95,42-24.12,90.79-62.41,113.22-57.84,33.89-53,86-165.91,108.67a232.73,232.73,0,0,1-50.06,4.73,192.82,192.82,0,0,1-24.58-2C94.93,453.85,46.64,404,28.93,343.76,5.61,264.57,52.17,212.73,83,181.49S136.48,52.93,247.3,29.78a225.2,225.2,0,0,1,51.46-4.89c39.42,1,82.43,13.92,112.19,40.94q3.36,3,6.53,6.31C458.84,114.59,476.42,182.48,469.65,239.72Z" style="fill: rgb(255, 255, 255); opacity: 0.7; transform-origin: 246.841px 245.603px;" class="animable"></path></g></g><g id="freepik--Graphics--inject-41" class="animable" style="transform-origin: 246.14px 206.885px;"><g id="el5t2zd5vo0q"><g style="opacity: 0.3; transform-origin: 382.83px 119.955px;" class="animable"><path d="M382.85,175a55.06,55.06,0,1,1,0-110.11,55.37,55.37,0,0,1,9.67.84A54.51,54.51,0,0,1,414.64,75a55.56,55.56,0,0,1,10.07,9.19h0A55.06,55.06,0,0,1,382.85,175Zm0-109.11A54.05,54.05,0,1,0,424,84.85h0a54.67,54.67,0,0,0-9.89-9,53.43,53.43,0,0,0-21.72-9.08A54.28,54.28,0,0,0,382.85,65.9Zm0,104.55a50.49,50.49,0,1,1,50.5-50.5A50.17,50.17,0,0,1,382.85,170.45Zm0-100a49.49,49.49,0,0,0-40.73,77.62,49.52,49.52,0,0,0,40.73,21.38,49.49,49.49,0,0,0,37.64-81.64,49.59,49.59,0,0,0-28.94-16.6A50.43,50.43,0,0,0,382.85,70.45Z" id="el85hqwoefpvk" class="animable" style="transform-origin: 382.471px 119.945px;"></path><path d="M382.85,175a55.06,55.06,0,1,1,0-110.11,55.37,55.37,0,0,1,9.67.84A54.51,54.51,0,0,1,414.64,75a55.56,55.56,0,0,1,10.07,9.19h0A55.06,55.06,0,0,1,382.85,175Zm0-109.11A54.05,54.05,0,1,0,424,84.85h0a54.67,54.67,0,0,0-9.89-9,53.43,53.43,0,0,0-21.72-9.08A54.28,54.28,0,0,0,382.85,65.9Zm0,104.55a50.49,50.49,0,1,1,50.5-50.5A50.17,50.17,0,0,1,382.85,170.45Zm0-100a49.49,49.49,0,0,0-40.73,77.62,49.52,49.52,0,0,0,40.73,21.38,49.49,49.49,0,0,0,37.64-81.64,49.59,49.59,0,0,0-28.94-16.6A50.43,50.43,0,0,0,382.85,70.45Z" id="el9bb900dbmna" class="animable" style="transform-origin: 382.471px 119.945px;"></path><path d="M432.5,77.54A65.3,65.3,0,1,0,448.15,120,65.45,65.45,0,0,0,432.5,77.54Zm-49.65,97A54.56,54.56,0,1,1,437.4,120,54.35,54.35,0,0,1,382.85,174.51Z" style="fill: none; stroke: rgb(0, 0, 0); stroke-linecap: round; stroke-linejoin: round; transform-origin: 382.85px 119.954px;" id="elwemelwbicc8" class="animable"></path><path d="M323.64,161.32a.49.49,0,0,1-.41-.21,72.45,72.45,0,0,1,59.62-113.6.5.5,0,0,1,.5.5v6.64a.5.5,0,0,1-.5.5,64.82,64.82,0,0,0-53.34,101.62.49.49,0,0,1,.09.37.51.51,0,0,1-.21.32l-5.47,3.77A.47.47,0,0,1,323.64,161.32ZM382.35,48.51a71.45,71.45,0,0,0-58.58,111.61l4.64-3.2A65.81,65.81,0,0,1,382.35,54.15Z" id="elxet6u97wl4n" class="animable" style="transform-origin: 346.88px 104.415px;"></path><path d="M382.85,170.45a50.49,50.49,0,1,1,50.5-50.5A50.17,50.17,0,0,1,382.85,170.45Zm0-100a49.49,49.49,0,0,0-40.73,77.62,49.52,49.52,0,0,0,40.73,21.38,49.49,49.49,0,0,0,37.64-81.64,49.59,49.59,0,0,0-28.94-16.6A50.43,50.43,0,0,0,382.85,70.45Z" id="elz55ki25qph9" class="animable" style="transform-origin: 382.861px 119.961px;"></path><path d="M338,151.45a.49.49,0,0,1-.41-.22A55.05,55.05,0,0,1,382.85,64.9a.5.5,0,0,1,.5.5V70a.5.5,0,0,1-.5.5,49.49,49.49,0,0,0-40.73,77.62.54.54,0,0,1,.08.37.56.56,0,0,1-.21.33l-3.76,2.59A.47.47,0,0,1,338,151.45Zm44.4-85.55a54.05,54.05,0,0,0-44.27,84.35l2.93-2a50.5,50.5,0,0,1,41.34-78.78Z" id="elcpd7ennc2dl" class="animable" style="transform-origin: 355.595px 108.176px;"></path><path d="M411.72,79.63a.52.52,0,0,1-.29-.09,48.78,48.78,0,0,0-19.88-8.33.52.52,0,0,1-.33-.21.52.52,0,0,1-.08-.37l.8-4.48a.5.5,0,0,1,.58-.41A54.51,54.51,0,0,1,414.64,75a.49.49,0,0,1,.12.69l-2.63,3.73a.48.48,0,0,1-.33.2Zm-19.51-9.31a49.81,49.81,0,0,1,19.39,8.11l2-2.9a53.23,53.23,0,0,0-20.81-8.71Z" id="elu3vmgmxxas" class="animable" style="transform-origin: 402.993px 72.6812px;"></path><path d="M420.56,67.13a.5.5,0,0,1-.29-.09,63.94,63.94,0,0,0-26-10.9.48.48,0,0,1-.32-.2.56.56,0,0,1-.08-.38L395,49a.5.5,0,0,1,.58-.4,71.5,71.5,0,0,1,29.11,12.18.49.49,0,0,1,.12.69L421,66.92a.5.5,0,0,1-.33.2ZM394.9,55.25a64.84,64.84,0,0,1,25.54,10.69l3.25-4.6a70.35,70.35,0,0,0-27.8-11.64Z" id="elxfmfp0v527l" class="animable" style="transform-origin: 409.383px 57.8611px;"></path><path d="M382.85,175a54.71,54.71,0,0,1-31.62-10,.49.49,0,0,1-.12-.69l2.62-3.74a.49.49,0,0,1,.32-.21.52.52,0,0,1,.38.09,49.5,49.5,0,0,0,66.06-72.67.48.48,0,0,1-.12-.36.51.51,0,0,1,.17-.35l3.46-3a.48.48,0,0,1,.37-.12.51.51,0,0,1,.34.17A55.06,55.06,0,0,1,382.85,175ZM352.21,164.5a54.06,54.06,0,0,0,72.06-79.27l-2.7,2.31a50.5,50.5,0,0,1-67.31,74Z" id="elmu8ler3ed3k" class="animable" style="transform-origin: 394.486px 129.474px;"></path><path d="M382.85,192.4a72,72,0,0,1-41.6-13.14.49.49,0,0,1-.12-.69l3.81-5.44a.52.52,0,0,1,.32-.2.56.56,0,0,1,.38.08,64.8,64.8,0,0,0,86.48-95.15.51.51,0,0,1,.06-.7l5-4.31a.51.51,0,0,1,.71.06A72.44,72.44,0,0,1,382.85,192.4Zm-40.61-13.67A71.44,71.44,0,0,0,437.49,73.94l-4.28,3.66a65.81,65.81,0,0,1-87.74,96.52Z" id="elzo6g9dbsj8" class="animable" style="transform-origin: 398.144px 132.567px;"></path></g></g><g id="elea0plp8fuk"><g style="opacity: 0.3; transform-origin: 67.2556px 336.03px;" class="animable"><path d="M67.26,359.07a23,23,0,0,1,0-46.08,23.73,23.73,0,0,1,4,.35,22.84,22.84,0,0,1,9.26,3.88,23.24,23.24,0,0,1,4.21,3.84h0a23,23,0,0,1-17.52,38Zm0-45.08A22,22,0,1,0,84,321.71h0A22.31,22.31,0,0,0,80,318a21.81,21.81,0,0,0-8.86-3.7A21.59,21.59,0,0,0,67.26,314Zm0,43.2a21.16,21.16,0,0,1,0-42.32,22,22,0,0,1,3.72.32,21.17,21.17,0,0,1-3.72,42Zm0-41.32a20.15,20.15,0,1,0,11.64,3.7,20.08,20.08,0,0,0-11.64-3.7Z" id="eltdrstz2znt" class="animable" style="transform-origin: 67.2573px 336.03px;"></path><path d="M67.26,359.07a23,23,0,0,1,0-46.08,23.73,23.73,0,0,1,4,.35,22.84,22.84,0,0,1,9.26,3.88,23.24,23.24,0,0,1,4.21,3.84h0a23,23,0,0,1-17.52,38Zm0-45.08A22,22,0,1,0,84,321.71h0A22.31,22.31,0,0,0,80,318a21.81,21.81,0,0,0-8.86-3.7A21.59,21.59,0,0,0,67.26,314Zm0,43.2a21.16,21.16,0,0,1,0-42.32,22,22,0,0,1,3.72.32,21.17,21.17,0,0,1-3.72,42Zm0-41.32a20.15,20.15,0,1,0,11.64,3.7,20.08,20.08,0,0,0-11.64-3.7Z" id="el6qucah2kjxp" class="animable" style="transform-origin: 67.2573px 336.03px;"></path><path d="M87.78,318.51A27,27,0,0,0,72,309.46a27.4,27.4,0,0,0-4.74-.41,27,27,0,0,0-22.21,42.31,27.28,27.28,0,0,0,6.71,6.76,27,27,0,0,0,36-39.61ZM67.26,358.57a22.49,22.49,0,0,1-13-4.08,22.77,22.77,0,0,1-5.6-5.65,22.54,22.54,0,0,1,18.55-35.35,23.42,23.42,0,0,1,4,.34,22.47,22.47,0,0,1,13.18,7.56,22.54,22.54,0,0,1-17.14,37.18Z" style="fill: none; stroke: rgb(0, 0, 0); stroke-linecap: round; stroke-linejoin: round; transform-origin: 67.203px 335.981px;" id="el5mndsbepz25" class="animable"></path><path d="M42.8,353.42a.52.52,0,0,1-.42-.22,30.23,30.23,0,0,1,24.88-47.4.5.5,0,0,1,.5.5v2.75a.5.5,0,0,1-.5.5,26.49,26.49,0,0,0-21.8,41.52.47.47,0,0,1,.08.38.48.48,0,0,1-.2.32l-2.26,1.56A.51.51,0,0,1,42.8,353.42Zm24-46.61a29.22,29.22,0,0,0-23.83,45.41l1.43-1a27.49,27.49,0,0,1,22.4-42.68Z" id="elzvhslwe8wp" class="animable" style="transform-origin: 52.3953px 329.61px;"></path><path d="M67.26,357.19a21.16,21.16,0,0,1,0-42.32,22,22,0,0,1,3.72.32,21.17,21.17,0,0,1-3.72,42Zm0-41.32a20.15,20.15,0,1,0,11.64,3.7,20.08,20.08,0,0,0-11.64-3.7Z" id="elf6tn1x6cpl" class="animable" style="transform-origin: 67.2358px 336.03px;"></path><path d="M48.71,349.34a.49.49,0,0,1-.41-.22,23,23,0,0,1,19-36.13.5.5,0,0,1,.5.5v1.88a.5.5,0,0,1-.5.5,20.16,20.16,0,0,0-16.59,31.61.5.5,0,0,1,.08.38.49.49,0,0,1-.21.32L49,349.25A.49.49,0,0,1,48.71,349.34ZM66.76,314a22.05,22.05,0,0,0-17.92,34.15l.73-.5a21.16,21.16,0,0,1,17.19-32.76Z" id="el6am5st86v9p" class="animable" style="transform-origin: 55.9919px 331.165px;"></path><path d="M79.19,319.66a.5.5,0,0,1-.29-.09,19.82,19.82,0,0,0-8.1-3.39.49.49,0,0,1-.32-.21.45.45,0,0,1-.08-.37l.33-1.85a.5.5,0,0,1,.58-.41,22.84,22.84,0,0,1,9.26,3.88.5.5,0,0,1,.11.69l-1.08,1.54a.56.56,0,0,1-.33.21Zm-7.72-4.37a20.89,20.89,0,0,1,7.6,3.18l.51-.72a21.74,21.74,0,0,0-8-3.33Z" id="elrkbpm3i8nfk" class="animable" style="transform-origin: 75.5804px 316.496px;"></path><path d="M82.84,314.5a.52.52,0,0,1-.29-.09A26.09,26.09,0,0,0,71.91,310a.48.48,0,0,1-.32-.2.47.47,0,0,1-.08-.38l.48-2.69a.49.49,0,0,1,.58-.41,29.83,29.83,0,0,1,12.14,5.08.5.5,0,0,1,.12.7l-1.58,2.24a.48.48,0,0,1-.33.2Zm-10.26-5.44a27.08,27.08,0,0,1,10.14,4.24l1-1.42a28.92,28.92,0,0,0-10.85-4.53Z" id="ele1lgybi64pb" class="animable" style="transform-origin: 78.211px 310.425px;"></path><path d="M67.26,359.07A22.9,22.9,0,0,1,54,354.9a.5.5,0,0,1-.13-.7L55,352.66a.47.47,0,0,1,.32-.21.52.52,0,0,1,.37.08,20.16,20.16,0,0,0,26.91-29.59.48.48,0,0,1-.12-.36.47.47,0,0,1,.17-.34L84.07,321a.5.5,0,0,1,.37-.12.51.51,0,0,1,.34.17,23,23,0,0,1-17.52,38ZM55,354.36A22,22,0,0,0,84.34,322.1l-.67.57a21.16,21.16,0,0,1-28.15,31Z" id="elfrjtrum73um" class="animable" style="transform-origin: 72.0624px 339.974px;"></path><path d="M67.26,366.26a30.11,30.11,0,0,1-17.36-5.48.51.51,0,0,1-.12-.7l1.58-2.24a.47.47,0,0,1,.32-.21.54.54,0,0,1,.37.08A26.49,26.49,0,0,0,87.4,318.83a.48.48,0,0,1-.12-.36.47.47,0,0,1,.17-.34l2.09-1.78a.49.49,0,0,1,.7,0,30.23,30.23,0,0,1-23,49.86Zm-16.37-6A29.23,29.23,0,0,0,89.8,317.43l-1.32,1.13a27.49,27.49,0,0,1-36.59,40.26Z" id="elgl1m73pm21a" class="animable" style="transform-origin: 73.5857px 341.231px;"></path></g></g><g id="elbd6l6iiehav"><g style="opacity: 0.3; transform-origin: 94px 230.985px;" class="animable"><path d="M76.08,217H64a5.12,5.12,0,0,1-5.11-5.12v-12A5.11,5.11,0,0,1,64,194.75h12a5.11,5.11,0,0,1,5.11,5.11v12A5.12,5.12,0,0,1,76.08,217ZM64,195.75a4.11,4.11,0,0,0-4.11,4.11v12A4.12,4.12,0,0,0,64,216h12a4.12,4.12,0,0,0,4.11-4.12v-12a4.11,4.11,0,0,0-4.11-4.11Z" id="elvyfjz27oqes" class="animable" style="transform-origin: 70px 205.875px;"></path><path d="M76.08,242.12H64A5.11,5.11,0,0,1,58.92,237V225A5.12,5.12,0,0,1,64,219.84h12A5.12,5.12,0,0,1,81.19,225v12A5.11,5.11,0,0,1,76.08,242.12ZM64,220.84A4.12,4.12,0,0,0,59.92,225v12A4.11,4.11,0,0,0,64,241.12h12A4.11,4.11,0,0,0,80.19,237V225a4.12,4.12,0,0,0-4.11-4.12Z" id="el3x6hp5cxl1r" class="animable" style="transform-origin: 70.055px 230.98px;"></path><path d="M76.08,267.22H64a5.12,5.12,0,0,1-5.11-5.11V250.05A5.11,5.11,0,0,1,64,244.94h12a5.11,5.11,0,0,1,5.11,5.11v12.06A5.12,5.12,0,0,1,76.08,267.22ZM64,245.94a4.11,4.11,0,0,0-4.11,4.11v12.06A4.12,4.12,0,0,0,64,266.22h12a4.12,4.12,0,0,0,4.11-4.11V250.05a4.11,4.11,0,0,0-4.11-4.11Z" id="eld733rxo63a" class="animable" style="transform-origin: 70px 256.08px;"></path><path d="M100.09,217H88a5.12,5.12,0,0,1-5.11-5.12v-12A5.11,5.11,0,0,1,88,194.75h12.06a5.11,5.11,0,0,1,5.11,5.11v12A5.12,5.12,0,0,1,100.09,217ZM88,195.75a4.12,4.12,0,0,0-4.11,4.11v12A4.12,4.12,0,0,0,88,216h12.06a4.12,4.12,0,0,0,4.11-4.12v-12a4.12,4.12,0,0,0-4.11-4.11Z" id="el5860iyekgkm" class="animable" style="transform-origin: 94.03px 205.875px;"></path><path d="M100.09,242.12H88A5.11,5.11,0,0,1,82.92,237V225A5.12,5.12,0,0,1,88,219.84h12.06A5.12,5.12,0,0,1,105.2,225v12A5.11,5.11,0,0,1,100.09,242.12ZM88,220.84A4.12,4.12,0,0,0,83.92,225v12A4.12,4.12,0,0,0,88,241.12h12.06A4.12,4.12,0,0,0,104.2,237V225a4.12,4.12,0,0,0-4.11-4.12Z" id="ele1kn15mtq2l" class="animable" style="transform-origin: 94.06px 230.98px;"></path><path d="M124.09,217H112a5.12,5.12,0,0,1-5.11-5.12v-12a5.11,5.11,0,0,1,5.11-5.11h12a5.11,5.11,0,0,1,5.11,5.11v12A5.12,5.12,0,0,1,124.09,217Zm-12-21.28a4.11,4.11,0,0,0-4.11,4.11v12A4.12,4.12,0,0,0,112,216h12a4.12,4.12,0,0,0,4.11-4.12v-12a4.11,4.11,0,0,0-4.11-4.11Z" id="elhu4ugxgm6h" class="animable" style="transform-origin: 118px 205.885px;"></path></g></g><g id="elmfvjzxkksvm"><path d="M92.08,335H64.36a.25.25,0,0,1-.25-.25.25.25,0,0,1,.25-.25H92l58.93-36.92a.25.25,0,0,1,.34.08.25.25,0,0,1-.08.35l-59,37A.31.31,0,0,1,92.08,335Z" style="opacity: 0.3; transform-origin: 107.71px 316.278px;" class="animable"></path></g></g><g id="freepik--Texts--inject-41" class="animable animator-active" style="transform-origin: 261.12px 224.53px;"><g id="elm9kn6jt0zth"><g style="opacity: 0.3; transform-origin: 410.645px 334.605px;" class="animable"><path d="M375.33,283.55H365.1a.25.25,0,0,1-.25-.25.25.25,0,0,1,.25-.25h10.23a.25.25,0,0,1,.25.25A.25.25,0,0,1,375.33,283.55Z" id="eld32r9b1o73j" class="animable" style="transform-origin: 370.215px 283.3px;"></path><path d="M403.54,289.56H365.1a.25.25,0,0,1-.25-.25.25.25,0,0,1,.25-.25h38.44a.25.25,0,0,1,.25.25A.25.25,0,0,1,403.54,289.56Z" id="el97mz9mj2m5w" class="animable" style="transform-origin: 384.32px 289.31px;"></path><path d="M463,289.56H424.56a.25.25,0,0,1-.25-.25.25.25,0,0,1,.25-.25H463a.25.25,0,0,1,.25.25A.25.25,0,0,1,463,289.56Z" id="el8xtr90mo1ho" class="animable" style="transform-origin: 443.78px 289.31px;"></path><path d="M421.24,289.56H406a.25.25,0,0,1-.25-.25.25.25,0,0,1,.25-.25h15.21a.25.25,0,0,1,.25.25A.25.25,0,0,1,421.24,289.56Z" id="elz1cn23ofujr" class="animable" style="transform-origin: 413.605px 289.31px;"></path><path d="M387.22,295.57H365.1a.25.25,0,0,1-.25-.25.25.25,0,0,1,.25-.25h22.12a.25.25,0,0,1,.25.25A.25.25,0,0,1,387.22,295.57Z" id="el5w0wb5jrd04" class="animable" style="transform-origin: 376.16px 295.32px;"></path><path d="M412.11,295.57H390a.25.25,0,0,1-.25-.25.25.25,0,0,1,.25-.25h22.12a.25.25,0,0,1,.25.25A.25.25,0,0,1,412.11,295.57Z" id="ellhrghjgwky9" class="animable" style="transform-origin: 401.06px 295.32px;"></path><path d="M437,295.57H414.88a.25.25,0,0,1-.25-.25.25.25,0,0,1,.25-.25H437a.25.25,0,0,1,.25.25A.25.25,0,0,1,437,295.57Z" id="el8jqwcqfi0n" class="animable" style="transform-origin: 425.94px 295.32px;"></path><path d="M449.17,295.57h-9.4a.25.25,0,0,1-.25-.25.25.25,0,0,1,.25-.25h9.4a.25.25,0,0,1,.25.25A.25.25,0,0,1,449.17,295.57Z" id="elbmfc0n455nl" class="animable" style="transform-origin: 444.47px 295.32px;"></path><path d="M388.33,283.55H378.1a.25.25,0,0,1-.25-.25.25.25,0,0,1,.25-.25h10.23a.25.25,0,0,1,.25.25A.25.25,0,0,1,388.33,283.55Z" id="elym2nc8ryc1" class="animable" style="transform-origin: 383.215px 283.3px;"></path><path d="M449.17,283.55H438.94a.25.25,0,0,1-.25-.25.25.25,0,0,1,.25-.25h10.23a.25.25,0,0,1,.25.25A.25.25,0,0,1,449.17,283.55Z" id="elu12fijzsx" class="animable" style="transform-origin: 444.055px 283.3px;"></path><path d="M435.62,283.55H425.39a.25.25,0,0,1-.25-.25.25.25,0,0,1,.25-.25h10.23a.25.25,0,0,1,.25.25A.25.25,0,0,1,435.62,283.55Z" id="el3upge9u6eq6" class="animable" style="transform-origin: 430.505px 283.3px;"></path><path d="M421,283.55H391.1a.25.25,0,0,1-.25-.25.25.25,0,0,1,.25-.25H421a.25.25,0,0,1,.25.25A.25.25,0,0,1,421,283.55Z" id="el9fgzq5u97jb" class="animable" style="transform-origin: 406.05px 283.3px;"></path><path d="M375.33,320.25H365.1a.25.25,0,0,1-.25-.25.25.25,0,0,1,.25-.25h10.23a.25.25,0,0,1,.25.25A.25.25,0,0,1,375.33,320.25Z" id="el9wdjy62rnww" class="animable" style="transform-origin: 370.215px 320px;"></path><path d="M403.54,326.26H365.1a.25.25,0,0,1,0-.5h38.44a.25.25,0,0,1,0,.5Z" id="el4h7c21unx0p" class="animable" style="transform-origin: 384.32px 326.01px;"></path><path d="M463,326.26H424.56a.25.25,0,1,1,0-.5H463a.25.25,0,0,1,0,.5Z" id="elf520k9l9wgp" class="animable" style="transform-origin: 443.78px 326.01px;"></path><path d="M421.24,326.26H406a.25.25,0,0,1,0-.5h15.21a.25.25,0,0,1,0,.5Z" id="el0hkyzs3ouswn" class="animable" style="transform-origin: 413.605px 326.01px;"></path><path d="M387.22,332.27H365.1a.25.25,0,0,1,0-.5h22.12a.25.25,0,0,1,0,.5Z" id="elnr6slqla7ch" class="animable" style="transform-origin: 376.16px 332.02px;"></path><path d="M412.11,332.27H390a.25.25,0,0,1,0-.5h22.12a.25.25,0,0,1,0,.5Z" id="el9m0iysx9ro9" class="animable" style="transform-origin: 401.06px 332.02px;"></path><path d="M437,332.27H414.88a.25.25,0,0,1,0-.5H437a.25.25,0,0,1,0,.5Z" id="eluipxh0gfnip" class="animable" style="transform-origin: 425.94px 332.02px;"></path><path d="M449.17,332.27h-9.4a.25.25,0,0,1,0-.5h9.4a.25.25,0,1,1,0,.5Z" id="eliqrqy7sam2" class="animable" style="transform-origin: 444.47px 332.02px;"></path><path d="M388.33,320.25H378.1a.25.25,0,0,1-.25-.25.25.25,0,0,1,.25-.25h10.23a.25.25,0,0,1,.25.25A.25.25,0,0,1,388.33,320.25Z" id="elipy3apbp1c" class="animable" style="transform-origin: 383.215px 320px;"></path><path d="M449.17,320.25H438.94a.25.25,0,0,1-.25-.25.25.25,0,0,1,.25-.25h10.23a.25.25,0,0,1,.25.25A.25.25,0,0,1,449.17,320.25Z" id="el0kg4hqkenqjk" class="animable" style="transform-origin: 444.055px 320px;"></path><path d="M435.62,320.25H425.39a.25.25,0,0,1-.25-.25.25.25,0,0,1,.25-.25h10.23a.25.25,0,0,1,.25.25A.25.25,0,0,1,435.62,320.25Z" id="els8egczhflb" class="animable" style="transform-origin: 430.505px 320px;"></path><path d="M421,320.25H391.1a.25.25,0,0,1-.25-.25.25.25,0,0,1,.25-.25H421a.25.25,0,0,1,.25.25A.25.25,0,0,1,421,320.25Z" id="elrm8jpmkiyfn" class="animable" style="transform-origin: 406.05px 320px;"></path><path d="M375.33,374.34H365.1a.25.25,0,0,1,0-.5h10.23a.25.25,0,0,1,0,.5Z" id="eln17c09x189" class="animable" style="transform-origin: 370.215px 374.09px;"></path><path d="M403.54,380.35H365.1a.25.25,0,0,1,0-.5h38.44a.25.25,0,1,1,0,.5Z" id="elxobsstw8u8" class="animable" style="transform-origin: 384.32px 380.1px;"></path><path d="M463,380.35H424.56a.25.25,0,0,1,0-.5H463a.25.25,0,0,1,0,.5Z" id="el24heun6u5fni" class="animable" style="transform-origin: 443.78px 380.1px;"></path><path d="M421.24,380.35H406a.25.25,0,0,1,0-.5h15.21a.25.25,0,0,1,0,.5Z" id="elsnl9jf7f647" class="animable" style="transform-origin: 413.605px 380.1px;"></path><path d="M387.22,386.36H365.1a.25.25,0,0,1,0-.5h22.12a.25.25,0,0,1,0,.5Z" id="elmhiirezo92n" class="animable" style="transform-origin: 376.16px 386.11px;"></path><path d="M412.11,386.36H390a.25.25,0,0,1,0-.5h22.12a.25.25,0,0,1,0,.5Z" id="el1of5ldpk3os" class="animable" style="transform-origin: 401.06px 386.11px;"></path><path d="M437,386.36H414.88a.25.25,0,0,1,0-.5H437a.25.25,0,0,1,0,.5Z" id="ell1tgbq1wh7" class="animable" style="transform-origin: 425.94px 386.11px;"></path><path d="M449.17,386.36h-9.4a.25.25,0,0,1,0-.5h9.4a.25.25,0,0,1,0,.5Z" id="elrf0xu42vwt" class="animable" style="transform-origin: 444.47px 386.11px;"></path><path d="M388.33,374.34H378.1a.25.25,0,0,1,0-.5h10.23a.25.25,0,0,1,0,.5Z" id="el2hvetod2v4i" class="animable" style="transform-origin: 383.215px 374.09px;"></path><path d="M449.17,374.34H438.94a.25.25,0,0,1,0-.5h10.23a.25.25,0,0,1,0,.5Z" id="elk4dqx6bmpkk" class="animable" style="transform-origin: 444.055px 374.09px;"></path><path d="M435.62,374.34H425.39a.25.25,0,0,1,0-.5h10.23a.25.25,0,0,1,0,.5Z" id="ela7msqwo8j9f" class="animable" style="transform-origin: 430.505px 374.09px;"></path><path d="M421,374.34H391.1a.25.25,0,0,1,0-.5H421a.25.25,0,0,1,0,.5Z" id="el0qqe114p52f" class="animable" style="transform-origin: 406.05px 374.09px;"></path><path d="M432.85,301.9H422.62a.25.25,0,0,1,0-.5h10.23a.25.25,0,0,1,0,.5Z" id="el6m6d86c5h5f" class="animable" style="transform-origin: 427.735px 301.65px;"></path><path d="M419.3,301.9H409.07a.25.25,0,0,1,0-.5H419.3a.25.25,0,1,1,0,.5Z" id="eltg35ctm491o" class="animable" style="transform-origin: 414.185px 301.65px;"></path><path d="M404.65,301.9H374.78a.25.25,0,0,1,0-.5h29.87a.25.25,0,0,1,0,.5Z" id="el4rchmy53xsf" class="animable" style="transform-origin: 389.715px 301.65px;"></path><path d="M432.85,312.66H422.62a.25.25,0,0,1-.25-.25.25.25,0,0,1,.25-.25h10.23a.25.25,0,0,1,.25.25A.25.25,0,0,1,432.85,312.66Z" id="elapid9b4uo09" class="animable" style="transform-origin: 427.735px 312.41px;"></path><path d="M419.3,312.66H409.07a.25.25,0,0,1-.25-.25.25.25,0,0,1,.25-.25H419.3a.25.25,0,0,1,.25.25A.25.25,0,0,1,419.3,312.66Z" id="el7l9d934gifo" class="animable" style="transform-origin: 414.185px 312.41px;"></path><path d="M404.65,312.66H374.78a.25.25,0,0,1-.25-.25.25.25,0,0,1,.25-.25h29.87a.25.25,0,0,1,.25.25A.26.26,0,0,1,404.65,312.66Z" id="elqcmzsvbhsw" class="animable" style="transform-origin: 389.715px 312.41px;"></path><path d="M385,307.28H374.78a.25.25,0,0,1,0-.5H385a.25.25,0,0,1,0,.5Z" id="el3pavd8bvwl2" class="animable" style="transform-origin: 379.89px 307.03px;"></path><path d="M398.56,307.28H388.33a.25.25,0,1,1,0-.5h10.23a.25.25,0,0,1,0,.5Z" id="elyr2slpf1h7e" class="animable" style="transform-origin: 393.445px 307.03px;"></path><path d="M432.85,307.28H403a.25.25,0,0,1,0-.5h29.86a.25.25,0,0,1,0,.5Z" id="elgr59ctuv7ul" class="animable" style="transform-origin: 417.93px 307.03px;"></path><path d="M432.85,339.54H422.62a.25.25,0,0,1-.25-.25.25.25,0,0,1,.25-.25h10.23a.25.25,0,0,1,.25.25A.25.25,0,0,1,432.85,339.54Z" id="elo72y4axyco" class="animable" style="transform-origin: 427.735px 339.29px;"></path><path d="M419.3,339.54H409.07a.25.25,0,0,1-.25-.25.25.25,0,0,1,.25-.25H419.3a.25.25,0,0,1,.25.25A.25.25,0,0,1,419.3,339.54Z" id="el0b8ulvvlh9yd" class="animable" style="transform-origin: 414.185px 339.29px;"></path><path d="M404.65,339.54H374.78a.25.25,0,0,1-.25-.25.25.25,0,0,1,.25-.25h29.87a.26.26,0,0,1,.25.25A.25.25,0,0,1,404.65,339.54Z" id="eliyj0pb50qkf" class="animable" style="transform-origin: 389.715px 339.29px;"></path><path d="M432.85,350.3H422.62a.25.25,0,0,1,0-.5h10.23a.25.25,0,0,1,0,.5Z" id="el8ydkkns3tx" class="animable" style="transform-origin: 427.735px 350.05px;"></path><path d="M419.3,350.3H409.07a.25.25,0,0,1,0-.5H419.3a.25.25,0,0,1,0,.5Z" id="elhdooxnxaos" class="animable" style="transform-origin: 414.185px 350.05px;"></path><path d="M404.65,350.3H374.78a.25.25,0,0,1,0-.5h29.87a.25.25,0,0,1,0,.5Z" id="elqz0dcltxb5d" class="animable" style="transform-origin: 389.715px 350.05px;"></path><path d="M385,344.92H374.78a.25.25,0,0,1,0-.5H385a.25.25,0,0,1,0,.5Z" id="elbd9vrie8gv9" class="animable" style="transform-origin: 379.89px 344.67px;"></path><path d="M398.56,344.92H388.33a.25.25,0,0,1,0-.5h10.23a.25.25,0,0,1,0,.5Z" id="el2pq9unoe8py" class="animable" style="transform-origin: 393.445px 344.67px;"></path><path d="M432.85,344.92H403a.25.25,0,0,1,0-.5h29.86a.25.25,0,0,1,0,.5Z" id="el29tovcs4m4r" class="animable" style="transform-origin: 417.93px 344.67px;"></path><path d="M385,356.62H374.78a.25.25,0,0,1-.25-.24.26.26,0,0,1,.25-.26H385a.26.26,0,0,1,.25.26A.25.25,0,0,1,385,356.62Z" id="eli58jcuxdtir" class="animable" style="transform-origin: 379.89px 356.37px;"></path><path d="M398.56,356.62H388.33a.25.25,0,0,1-.25-.24.26.26,0,0,1,.25-.26h10.23a.26.26,0,0,1,.25.26A.25.25,0,0,1,398.56,356.62Z" id="el1t2u1txg11t" class="animable" style="transform-origin: 393.445px 356.37px;"></path><path d="M432.85,356.62H403a.25.25,0,0,1-.25-.24.26.26,0,0,1,.25-.26h29.86a.26.26,0,0,1,.25.26A.25.25,0,0,1,432.85,356.62Z" id="ely2njc1e1f79" class="animable" style="transform-origin: 417.93px 356.37px;"></path><path d="M385,367.38H374.78a.25.25,0,0,1,0-.5H385a.25.25,0,0,1,0,.5Z" id="el8zntnn5icx9" class="animable" style="transform-origin: 379.89px 367.13px;"></path><path d="M398.56,367.38H388.33a.25.25,0,0,1,0-.5h10.23a.25.25,0,1,1,0,.5Z" id="elpapqildeedc" class="animable" style="transform-origin: 393.445px 367.13px;"></path><path d="M432.85,367.38H403a.25.25,0,0,1,0-.5h29.86a.25.25,0,0,1,0,.5Z" id="elwze1pztd1r8" class="animable" style="transform-origin: 417.93px 367.13px;"></path><path d="M432.85,362H422.62a.25.25,0,0,1,0-.5h10.23a.25.25,0,0,1,0,.5Z" id="elqhu1fbu70vq" class="animable" style="transform-origin: 427.735px 361.75px;"></path><path d="M419.3,362H409.07a.25.25,0,1,1,0-.5H419.3a.25.25,0,0,1,0,.5Z" id="elcx301aisrc8" class="animable" style="transform-origin: 414.185px 361.75px;"></path><path d="M404.65,362H374.78a.25.25,0,0,1,0-.5h29.87a.25.25,0,0,1,0,.5Z" id="elgvdbitfvvdo" class="animable" style="transform-origin: 389.715px 361.75px;"></path><rect x="358.04" y="281.22" width="3.27" height="3.69" id="elal3yrdcho2c" class="animable" style="transform-origin: 359.675px 283.065px;"></rect><rect x="358.04" y="287.28" width="3.27" height="3.69" id="elzfj3mux0sma" class="animable" style="transform-origin: 359.675px 289.125px;"></rect><rect x="358.04" y="293.34" width="3.27" height="3.69" id="elbhgvjz7tgjf" class="animable" style="transform-origin: 359.675px 295.185px;"></rect><rect x="358.04" y="299.41" width="3.27" height="3.69" id="el3ijjplisnxt" class="animable" style="transform-origin: 359.675px 301.255px;"></rect><rect x="358.04" y="305.47" width="3.27" height="3.69" id="el3kegy8y0yrk" class="animable" style="transform-origin: 359.675px 307.315px;"></rect><rect x="358.04" y="311.53" width="3.27" height="3.69" id="elvc4isd025mo" class="animable" style="transform-origin: 359.675px 313.375px;"></rect><rect x="358.04" y="317.6" width="3.27" height="3.69" id="el82da8mno06q" class="animable" style="transform-origin: 359.675px 319.445px;"></rect><rect x="358.04" y="323.66" width="3.27" height="3.69" id="el43g5ixg1nvy" class="animable" style="transform-origin: 359.675px 325.505px;"></rect><rect x="358.04" y="329.72" width="3.27" height="3.69" id="elgjjj6oc0kao" class="animable" style="transform-origin: 359.675px 331.565px;"></rect><rect x="358.04" y="335.79" width="3.27" height="3.69" id="elpfmmdeba63s" class="animable" style="transform-origin: 359.675px 337.635px;"></rect><rect x="358.04" y="341.85" width="3.27" height="3.69" id="elawx1g63mk44" class="animable" style="transform-origin: 359.675px 343.695px;"></rect><rect x="358.04" y="347.92" width="3.27" height="3.69" id="eltlrpwez9e9" class="animable" style="transform-origin: 359.675px 349.765px;"></rect><rect x="358.04" y="353.98" width="3.27" height="3.69" id="eldaqxcmhgiop" class="animable" style="transform-origin: 359.675px 355.825px;"></rect><rect x="358.04" y="360.04" width="3.27" height="3.69" id="elmxcgva84sl" class="animable" style="transform-origin: 359.675px 361.885px;"></rect><rect x="358.04" y="366.11" width="3.27" height="3.69" id="elqehf054yq8" class="animable" style="transform-origin: 359.675px 367.955px;"></rect><rect x="358.04" y="372.17" width="3.27" height="3.69" id="el8rmfzi2uacj" class="animable" style="transform-origin: 359.675px 374.015px;"></rect><rect x="358.04" y="378.23" width="3.27" height="3.69" id="el6eu15cjqm6s" class="animable" style="transform-origin: 359.675px 380.075px;"></rect><rect x="358.04" y="384.3" width="3.27" height="3.69" id="elqg8g1n9w6" class="animable" style="transform-origin: 359.675px 386.145px;"></rect></g></g><g id="elme8n45phoy"><g style="opacity: 0.3; transform-origin: 111.59px 114.455px;" class="animable"><path d="M76.28,63.41H66.05a.25.25,0,1,1,0-.5H76.28a.25.25,0,0,1,0,.5Z" id="el54yhrj1fhy" class="animable" style="transform-origin: 71.165px 63.16px;"></path><path d="M104.49,69.42H66.05a.25.25,0,0,1,0-.5h38.44a.25.25,0,0,1,0,.5Z" id="eljzzvhc0i1q" class="animable" style="transform-origin: 85.27px 69.17px;"></path><path d="M163.94,69.42H125.5a.25.25,0,0,1,0-.5h38.44a.25.25,0,0,1,0,.5Z" id="el2lig8fmgdt9" class="animable" style="transform-origin: 144.72px 69.17px;"></path><path d="M122.19,69.42H107a.25.25,0,0,1,0-.5h15.21a.25.25,0,0,1,0,.5Z" id="elkbyrcex6anh" class="animable" style="transform-origin: 114.605px 69.17px;"></path><path d="M88.17,75.43H66.05a.25.25,0,0,1,0-.5H88.17a.25.25,0,1,1,0,.5Z" id="el1c9cg8xt5gn" class="animable" style="transform-origin: 77.11px 75.18px;"></path><path d="M113.06,75.43H90.94a.25.25,0,0,1,0-.5h22.12a.25.25,0,0,1,0,.5Z" id="el2iub3cptbas" class="animable" style="transform-origin: 102px 75.18px;"></path><path d="M138,75.43H115.83a.25.25,0,1,1,0-.5H138a.25.25,0,0,1,0,.5Z" id="eluf9tca7t80s" class="animable" style="transform-origin: 126.915px 75.18px;"></path><path d="M150.12,75.43h-9.41a.25.25,0,0,1,0-.5h9.41a.25.25,0,0,1,0,.5Z" id="el5ves0029ay" class="animable" style="transform-origin: 145.415px 75.18px;"></path><path d="M89.28,63.41H79.05a.25.25,0,1,1,0-.5H89.28a.25.25,0,0,1,0,.5Z" id="el017653ly58z1m" class="animable" style="transform-origin: 84.165px 63.16px;"></path><path d="M150.12,63.41H139.88a.25.25,0,0,1,0-.5h10.24a.25.25,0,0,1,0,.5Z" id="elidpkz3ng28" class="animable" style="transform-origin: 145px 63.16px;"></path><path d="M136.57,63.41H126.33a.25.25,0,0,1,0-.5h10.24a.25.25,0,0,1,0,.5Z" id="el8njgjbs6xuv" class="animable" style="transform-origin: 131.45px 63.16px;"></path><path d="M121.91,63.41H92a.25.25,0,1,1,0-.5h29.87a.25.25,0,0,1,0,.5Z" id="elytko8pf6hzd" class="animable" style="transform-origin: 106.935px 63.16px;"></path><path d="M76.28,100.1H66.05a.25.25,0,1,1,0-.5H76.28a.25.25,0,0,1,0,.5Z" id="elnqmh3t3uq8e" class="animable" style="transform-origin: 71.165px 99.85px;"></path><path d="M104.49,106.11H66.05a.25.25,0,0,1,0-.5h38.44a.25.25,0,0,1,0,.5Z" id="elz4s23dyyu3q" class="animable" style="transform-origin: 85.27px 105.86px;"></path><path d="M163.94,106.11H125.5a.25.25,0,0,1,0-.5h38.44a.25.25,0,0,1,0,.5Z" id="eluwuxltytio" class="animable" style="transform-origin: 144.72px 105.86px;"></path><path d="M122.19,106.11H107a.25.25,0,0,1,0-.5h15.21a.25.25,0,0,1,0,.5Z" id="el6n48qhgjk1q" class="animable" style="transform-origin: 114.605px 105.86px;"></path><path d="M88.17,112.12H66.05a.25.25,0,0,1,0-.5H88.17a.25.25,0,1,1,0,.5Z" id="elypg0y8pt6h" class="animable" style="transform-origin: 77.11px 111.87px;"></path><path d="M113.06,112.12H90.94a.25.25,0,0,1,0-.5h22.12a.25.25,0,0,1,0,.5Z" id="elio8ahobpwpe" class="animable" style="transform-origin: 102px 111.87px;"></path><path d="M138,112.12H115.83a.25.25,0,1,1,0-.5H138a.25.25,0,0,1,0,.5Z" id="elynhc6kvdbv8" class="animable" style="transform-origin: 126.915px 111.87px;"></path><path d="M150.12,112.12h-9.41a.25.25,0,0,1,0-.5h9.41a.25.25,0,0,1,0,.5Z" id="elt18kege17k" class="animable" style="transform-origin: 145.415px 111.87px;"></path><path d="M89.28,100.1H79.05a.25.25,0,1,1,0-.5H89.28a.25.25,0,0,1,0,.5Z" id="eltr0pbnj8uh" class="animable" style="transform-origin: 84.165px 99.85px;"></path><path d="M150.12,100.1H139.88a.25.25,0,0,1,0-.5h10.24a.25.25,0,0,1,0,.5Z" id="eln2kcem2jfb" class="animable" style="transform-origin: 145px 99.85px;"></path><path d="M136.57,100.1H126.33a.25.25,0,0,1,0-.5h10.24a.25.25,0,0,1,0,.5Z" id="elxyjea7gwy1r" class="animable" style="transform-origin: 131.45px 99.85px;"></path><path d="M121.91,100.1H92a.25.25,0,1,1,0-.5h29.87a.25.25,0,0,1,0,.5Z" id="elk5rs2pp3fhq" class="animable" style="transform-origin: 106.935px 99.85px;"></path><path d="M76.28,154.19H66.05a.25.25,0,0,1,0-.5H76.28a.25.25,0,0,1,0,.5Z" id="el166nr76ypw8" class="animable" style="transform-origin: 71.165px 153.94px;"></path><path d="M104.49,160.2H66.05a.25.25,0,0,1,0-.5h38.44a.25.25,0,1,1,0,.5Z" id="elarjkfxd5ah5" class="animable" style="transform-origin: 85.27px 159.95px;"></path><path d="M163.94,160.2H125.5a.25.25,0,0,1,0-.5h38.44a.25.25,0,0,1,0,.5Z" id="elmssc5c8ngj8" class="animable" style="transform-origin: 144.72px 159.95px;"></path><path d="M122.19,160.2H107a.25.25,0,0,1,0-.5h15.21a.25.25,0,0,1,0,.5Z" id="elnos2zkqwfdd" class="animable" style="transform-origin: 114.605px 159.95px;"></path><path d="M88.17,166.21H66.05a.25.25,0,0,1-.25-.25.25.25,0,0,1,.25-.25H88.17a.25.25,0,0,1,.25.25A.25.25,0,0,1,88.17,166.21Z" id="el87jb14qwezj" class="animable" style="transform-origin: 77.11px 165.96px;"></path><path d="M113.06,166.21H90.94a.25.25,0,0,1-.25-.25.25.25,0,0,1,.25-.25h22.12a.25.25,0,0,1,.25.25A.25.25,0,0,1,113.06,166.21Z" id="ell5b5ty9siq" class="animable" style="transform-origin: 102px 165.96px;"></path><path d="M138,166.21H115.83a.25.25,0,0,1-.25-.25.25.25,0,0,1,.25-.25H138a.25.25,0,0,1,.25.25A.25.25,0,0,1,138,166.21Z" id="elhd06ct1bma" class="animable" style="transform-origin: 126.915px 165.96px;"></path><path d="M150.12,166.21h-9.41a.25.25,0,0,1-.25-.25.26.26,0,0,1,.25-.25h9.41a.26.26,0,0,1,.25.25A.25.25,0,0,1,150.12,166.21Z" id="eluyz78e4qi8j" class="animable" style="transform-origin: 145.415px 165.96px;"></path><path d="M89.28,154.19H79.05a.25.25,0,0,1,0-.5H89.28a.25.25,0,0,1,0,.5Z" id="elgry5yzpnrac" class="animable" style="transform-origin: 84.165px 153.94px;"></path><path d="M150.12,154.19H139.88a.25.25,0,0,1,0-.5h10.24a.25.25,0,0,1,0,.5Z" id="elwfflqbzbc1e" class="animable" style="transform-origin: 145px 153.94px;"></path><path d="M136.57,154.19H126.33a.25.25,0,1,1,0-.5h10.24a.25.25,0,0,1,0,.5Z" id="elahptw3ol6ak" class="animable" style="transform-origin: 131.45px 153.94px;"></path><path d="M121.91,154.19H92a.25.25,0,0,1,0-.5h29.87a.25.25,0,1,1,0,.5Z" id="elxfnc23c62k" class="animable" style="transform-origin: 106.935px 153.94px;"></path><path d="M133.8,81.75H123.57a.25.25,0,0,1-.25-.25.25.25,0,0,1,.25-.25H133.8a.25.25,0,0,1,.25.25A.25.25,0,0,1,133.8,81.75Z" id="elhr60ghttubp" class="animable" style="transform-origin: 128.685px 81.5px;"></path><path d="M120.25,81.75H110a.25.25,0,0,1-.25-.25.25.25,0,0,1,.25-.25h10.23a.25.25,0,0,1,.25.25A.25.25,0,0,1,120.25,81.75Z" id="el4xok272dajy" class="animable" style="transform-origin: 115.115px 81.5px;"></path><path d="M105.59,81.75H75.73a.25.25,0,0,1-.25-.25.25.25,0,0,1,.25-.25h29.86a.25.25,0,0,1,.25.25A.25.25,0,0,1,105.59,81.75Z" id="elvjhdwycqus" class="animable" style="transform-origin: 90.66px 81.5px;"></path><path d="M133.8,92.51H123.57a.25.25,0,0,1,0-.5H133.8a.25.25,0,0,1,0,.5Z" id="elsd8pdx4uy1e" class="animable" style="transform-origin: 128.685px 92.26px;"></path><path d="M120.25,92.51H110a.25.25,0,0,1,0-.5h10.23a.25.25,0,0,1,0,.5Z" id="elxihrx748e5" class="animable" style="transform-origin: 115.115px 92.26px;"></path><path d="M105.59,92.51H75.73a.25.25,0,0,1,0-.5h29.86a.25.25,0,0,1,0,.5Z" id="ely8hvqp1ya1l" class="animable" style="transform-origin: 90.66px 92.26px;"></path><path d="M86,87.13H75.73a.25.25,0,0,1,0-.5H86a.25.25,0,0,1,0,.5Z" id="elxczo3yjgstm" class="animable" style="transform-origin: 80.865px 86.88px;"></path><path d="M99.51,87.13H89.28a.25.25,0,0,1,0-.5H99.51a.25.25,0,0,1,0,.5Z" id="el3y58do5g6yo" class="animable" style="transform-origin: 94.395px 86.88px;"></path><path d="M133.8,87.13H103.93a.25.25,0,0,1,0-.5H133.8a.25.25,0,0,1,0,.5Z" id="ela03awciag5f" class="animable" style="transform-origin: 118.865px 86.88px;"></path><path d="M133.8,119.4H123.57a.25.25,0,0,1,0-.5H133.8a.25.25,0,0,1,0,.5Z" id="eluglku01oxwf" class="animable" style="transform-origin: 128.685px 119.15px;"></path><path d="M120.25,119.4H110a.25.25,0,0,1,0-.5h10.23a.25.25,0,0,1,0,.5Z" id="eldyjgrxa3s28" class="animable" style="transform-origin: 115.115px 119.15px;"></path><path d="M105.59,119.4H75.73a.25.25,0,1,1,0-.5h29.86a.25.25,0,0,1,0,.5Z" id="elepyk0tbuul6" class="animable" style="transform-origin: 90.66px 119.15px;"></path><path d="M133.8,130.15H123.57a.25.25,0,0,1,0-.5H133.8a.25.25,0,0,1,0,.5Z" id="elxfg5am5067" class="animable" style="transform-origin: 128.685px 129.9px;"></path><path d="M120.25,130.15H110a.25.25,0,0,1,0-.5h10.23a.25.25,0,0,1,0,.5Z" id="elxkq7psnw5xk" class="animable" style="transform-origin: 115.115px 129.9px;"></path><path d="M105.59,130.15H75.73a.25.25,0,1,1,0-.5h29.86a.25.25,0,0,1,0,.5Z" id="elqxreob73mtm" class="animable" style="transform-origin: 90.66px 129.9px;"></path><path d="M86,124.77H75.73a.25.25,0,0,1-.25-.25.25.25,0,0,1,.25-.25H86a.25.25,0,0,1,.25.25A.25.25,0,0,1,86,124.77Z" id="elgmbk0hkxpe" class="animable" style="transform-origin: 80.865px 124.52px;"></path><path d="M99.51,124.77H89.28a.25.25,0,0,1-.25-.25.25.25,0,0,1,.25-.25H99.51a.25.25,0,0,1,.25.25A.25.25,0,0,1,99.51,124.77Z" id="elc3depv4lf1m" class="animable" style="transform-origin: 94.395px 124.52px;"></path><path d="M133.8,124.77H103.93a.25.25,0,0,1-.25-.25.26.26,0,0,1,.25-.25H133.8a.25.25,0,0,1,.25.25A.25.25,0,0,1,133.8,124.77Z" id="el4nkyrfokdta" class="animable" style="transform-origin: 118.865px 124.52px;"></path><path d="M86,136.48H75.73a.25.25,0,1,1,0-.5H86a.25.25,0,1,1,0,.5Z" id="elnefq6f6o7i" class="animable" style="transform-origin: 80.865px 136.23px;"></path><path d="M99.51,136.48H89.28a.25.25,0,0,1,0-.5H99.51a.25.25,0,1,1,0,.5Z" id="elkz5a8f1mhd" class="animable" style="transform-origin: 94.395px 136.23px;"></path><path d="M133.8,136.48H103.93a.25.25,0,0,1,0-.5H133.8a.25.25,0,0,1,0,.5Z" id="ely35mx4z0q3o" class="animable" style="transform-origin: 118.865px 136.23px;"></path><path d="M86,147.23H75.73a.25.25,0,0,1-.25-.25.25.25,0,0,1,.25-.25H86a.25.25,0,0,1,.25.25A.25.25,0,0,1,86,147.23Z" id="elk5x5hat137" class="animable" style="transform-origin: 80.865px 146.98px;"></path><path d="M99.51,147.23H89.28A.25.25,0,0,1,89,147a.25.25,0,0,1,.25-.25H99.51a.25.25,0,0,1,.25.25A.25.25,0,0,1,99.51,147.23Z" id="ellkn2m70fwn9" class="animable" style="transform-origin: 94.38px 146.991px;"></path><path d="M133.8,147.23H103.93a.25.25,0,0,1-.25-.25.26.26,0,0,1,.25-.25H133.8a.25.25,0,0,1,.25.25A.25.25,0,0,1,133.8,147.23Z" id="elg4dh87znwwp" class="animable" style="transform-origin: 118.865px 146.98px;"></path><path d="M133.8,141.86H123.57a.25.25,0,0,1-.25-.25.25.25,0,0,1,.25-.25H133.8a.25.25,0,0,1,.25.25A.25.25,0,0,1,133.8,141.86Z" id="elj6redsf2kw" class="animable" style="transform-origin: 128.685px 141.61px;"></path><path d="M120.25,141.86H110a.25.25,0,0,1-.25-.25.25.25,0,0,1,.25-.25h10.23a.25.25,0,0,1,.25.25A.25.25,0,0,1,120.25,141.86Z" id="el73atjbtrh0b" class="animable" style="transform-origin: 115.115px 141.61px;"></path><path d="M105.59,141.86H75.73a.25.25,0,0,1-.25-.25.25.25,0,0,1,.25-.25h29.86a.25.25,0,0,1,.25.25A.25.25,0,0,1,105.59,141.86Z" id="elazpstk5e7h9" class="animable" style="transform-origin: 90.66px 141.61px;"></path><rect x="58.99" y="61.07" width="3.27" height="3.69" id="el1fgsq0ng6gx" class="animable" style="transform-origin: 60.625px 62.915px;"></rect><rect x="58.99" y="67.13" width="3.27" height="3.69" id="eldmj898g53n" class="animable" style="transform-origin: 60.625px 68.975px;"></rect><rect x="58.99" y="73.2" width="3.27" height="3.69" id="elo6taujzjjwa" class="animable" style="transform-origin: 60.625px 75.045px;"></rect><rect x="58.99" y="79.26" width="3.27" height="3.69" id="elqmygtnwo51r" class="animable" style="transform-origin: 60.625px 81.105px;"></rect><rect x="58.99" y="85.32" width="3.27" height="3.69" id="elvcor73ajh9" class="animable" style="transform-origin: 60.625px 87.165px;"></rect><rect x="58.99" y="91.39" width="3.27" height="3.69" id="elxv3b3guj4bh" class="animable" style="transform-origin: 60.625px 93.235px;"></rect><rect x="58.99" y="97.45" width="3.27" height="3.69" id="elustcdm1bxop" class="animable" style="transform-origin: 60.625px 99.295px;"></rect><rect x="58.99" y="103.52" width="3.27" height="3.69" id="elq5e2dduch8e" class="animable" style="transform-origin: 60.625px 105.365px;"></rect><rect x="58.99" y="109.58" width="3.27" height="3.69" id="elth980aveh" class="animable" style="transform-origin: 60.625px 111.425px;"></rect><rect x="58.99" y="115.64" width="3.27" height="3.69" id="elbo3ai71c0lv" class="animable" style="transform-origin: 60.625px 117.485px;"></rect><rect x="58.99" y="121.71" width="3.27" height="3.69" id="elp7sfkv8m9n" class="animable" style="transform-origin: 60.625px 123.555px;"></rect><rect x="58.99" y="127.77" width="3.27" height="3.69" id="el35yb5tbean3" class="animable" style="transform-origin: 60.625px 129.615px;"></rect><rect x="58.99" y="133.83" width="3.27" height="3.69" id="eldsnxcexjjr" class="animable" style="transform-origin: 60.625px 135.675px;"></rect><rect x="58.99" y="139.9" width="3.27" height="3.69" id="elqbhrxvb6vsc" class="animable" style="transform-origin: 60.625px 141.745px;"></rect><rect x="58.99" y="145.96" width="3.27" height="3.69" id="eljcvu49p704q" class="animable" style="transform-origin: 60.625px 147.805px;"></rect><rect x="58.99" y="152.02" width="3.27" height="3.69" id="el2zsmzyidbsf" class="animable" style="transform-origin: 60.625px 153.865px;"></rect><rect x="58.99" y="158.09" width="3.27" height="3.69" id="ell058hixl4r9" class="animable" style="transform-origin: 60.625px 159.935px;"></rect><rect x="58.99" y="164.15" width="3.27" height="3.69" id="elmucp2zrg47d" class="animable" style="transform-origin: 60.625px 165.995px;"></rect></g></g></g><g id="freepik--robot-face--inject-41" class="animable" style="transform-origin: 251.167px 252.91px;"><path d="M314.26,335.68l-63.92,12.25-63.92-12.25S180.86,382,167,409.19c0,0,32,34.71,83.38,50.37,51.42-15.66,83.38-50.37,83.38-50.37C319.82,382,314.26,335.68,314.26,335.68Z" style="fill: rgb(47, 178, 200); transform-origin: 250.38px 397.62px;" id="elv4hjmq9xrco" class="animable"></path><path d="M250.34,460.06l-.15,0c-50.95-15.52-83.28-50.16-83.6-50.51a.52.52,0,0,1-.08-.57c13.7-26.83,19.35-72.88,19.41-73.34a.5.5,0,0,1,.2-.34.45.45,0,0,1,.39-.09l63.83,12.23,63.83-12.23a.45.45,0,0,1,.39.09.5.5,0,0,1,.2.34c.06.46,5.71,46.51,19.41,73.34a.52.52,0,0,1-.08.57c-.32.35-32.65,35-83.61,50.51Zm-82.77-51c3,3.17,34.46,35.18,82.77,49.94,48.31-14.76,79.75-46.77,82.77-49.94-12.86-25.46-18.6-67.61-19.28-72.83l-63.4,12.15h-.18l-63.41-12.15C186.17,341.49,180.43,383.64,167.57,409.1Z" style="fill: rgb(38, 50, 56); transform-origin: 250.34px 397.629px;" id="eltmknrywqkq" class="animable"></path><path d="M186.42,335.68s-1.14,9.47-3.67,22.36c14.27,16.38,37.62,38.75,67.59,51.83-8.25-18.75-26.1-46.06-43.05-70.19Z" style="fill: rgb(255, 255, 255); transform-origin: 216.545px 372.775px;" id="elpcxot6u00i" class="animable"></path><path d="M250.34,410.37a.45.45,0,0,1-.2,0c-30-13.11-53.42-35.49-67.77-52a.51.51,0,0,1-.11-.43c2.49-12.72,3.65-22.23,3.66-22.32a.5.5,0,0,1,.2-.34.45.45,0,0,1,.39-.09l20.87,4a.52.52,0,0,1,.32.2c21.63,30.79,36.13,54.44,43.1,70.28a.49.49,0,0,1-.11.55A.47.47,0,0,1,250.34,410.37ZM183.28,357.9c14.11,16.15,36.91,37.94,66.07,51C242.23,393.15,228,370,207,340.13l-20.15-3.86C186.57,338.43,185.42,347,183.28,357.9Z" style="fill: rgb(38, 50, 56); transform-origin: 216.545px 372.779px;" id="el42x4nk2upyn" class="animable"></path><path d="M314.26,335.68l-20.87,4c-16.95,24.13-34.8,51.44-43,70.19,30-13.08,53.32-35.45,67.59-51.83C315.4,345.15,314.26,335.68,314.26,335.68Z" style="fill: rgb(255, 255, 255); transform-origin: 284.185px 372.775px;" id="el6www5vpmp5m" class="animable"></path><path d="M250.34,410.37a.47.47,0,0,1-.35-.15.49.49,0,0,1-.11-.55c7-15.85,21.48-39.49,43.1-70.28a.52.52,0,0,1,.32-.2l20.87-4a.45.45,0,0,1,.39.09.5.5,0,0,1,.2.34c0,.09,1.16,9.6,3.66,22.32a.51.51,0,0,1-.11.43c-14.35,16.47-37.75,38.85-67.77,52A.45.45,0,0,1,250.34,410.37Zm43.35-70.24c-21,29.9-35.24,53-42.36,68.76,29.16-13.05,52-34.84,66.07-51-2.14-10.94-3.29-19.47-3.57-21.63Z" style="fill: rgb(38, 50, 56); transform-origin: 284.135px 372.779px;" id="eltja0str2bmm" class="animable"></path><path d="M314.88,310c-20.31,27.35-52.56,72.66-64.54,99.9,32.08-14,56.59-38.65,70.48-55.21C317.7,335.89,315.78,318.86,314.88,310Z" style="fill: rgb(255, 255, 255); transform-origin: 285.58px 359.95px;" id="el1s1kgoy74l4i" class="animable"></path><path d="M250.34,410.37a.47.47,0,0,1-.35-.15.49.49,0,0,1-.11-.55c12.2-27.72,45.71-74.55,64.6-100a.5.5,0,0,1,.53-.19.51.51,0,0,1,.37.44c.86,8.56,2.79,25.76,5.94,44.66a.52.52,0,0,1-.11.4c-14.8,17.64-39.08,41.56-70.67,55.35A.45.45,0,0,1,250.34,410.37Zm64.17-99.07c-18.72,25.27-50.78,70.2-63.18,97.59,30.73-13.75,54.4-37.06,69-54.38C317.31,336.58,315.43,320.2,314.51,311.3Z" style="fill: rgb(38, 50, 56); transform-origin: 285.582px 359.917px;" id="el4n3onoqqfxf" class="animable"></path><path d="M179.85,354.66c13.9,16.56,38.41,41.2,70.49,55.21-12-27.24-44.23-72.55-64.54-99.9C184.9,318.86,183,335.89,179.85,354.66Z" style="fill: rgb(255, 255, 255); transform-origin: 215.095px 359.92px;" id="elewtkxytxrlf" class="animable"></path><path d="M250.34,410.37a.45.45,0,0,1-.2,0c-31.59-13.79-55.87-37.71-70.67-55.35a.52.52,0,0,1-.11-.4c3.15-18.9,5.08-36.1,5.94-44.66a.51.51,0,0,1,.37-.44.5.5,0,0,1,.53.19c18.89,25.45,52.4,72.28,64.6,100a.49.49,0,0,1-.11.55A.47.47,0,0,1,250.34,410.37Zm-70-55.86c14.56,17.32,38.23,40.63,69,54.38-12.4-27.39-44.46-72.32-63.18-97.59C185.25,320.2,183.37,336.58,180.39,354.51Z" style="fill: rgb(38, 50, 56); transform-origin: 215.098px 359.943px;" id="ellf2o9l0tgx" class="animable"></path><ellipse cx="248.98" cy="374.14" rx="35.73" ry="18.04" style="fill: rgb(38, 50, 56); transform-origin: 248.98px 374.14px;" id="eljd3d239bn0j" class="animable"></ellipse><path d="M249,392.67c-20,0-36.24-8.31-36.24-18.53S229,355.6,249,355.6s36.23,8.31,36.23,18.54S269,392.67,249,392.67Zm0-36.07c-19.43,0-35.24,7.87-35.24,17.54s15.81,17.53,35.24,17.53,35.23-7.86,35.23-17.53S268.41,356.6,249,356.6Z" style="fill: rgb(38, 50, 56); transform-origin: 248.995px 374.135px;" id="eldpdjgww6drs" class="animable"></path><ellipse cx="248.98" cy="396.6" rx="28.16" ry="14.22" style="fill: rgb(38, 50, 56); transform-origin: 248.98px 396.6px;" id="eldea5pis8q7f" class="animable"></ellipse><path d="M249,411.31c-15.81,0-28.67-6.6-28.67-14.71s12.86-14.72,28.67-14.72,28.66,6.6,28.66,14.72S264.78,411.31,249,411.31Zm0-28.43c-15.26,0-27.67,6.15-27.67,13.72s12.41,13.71,27.67,13.71,27.66-6.15,27.66-13.71S264.23,382.88,249,382.88Z" style="fill: rgb(38, 50, 56); transform-origin: 248.995px 396.595px;" id="elyll1nv1gnsj" class="animable"></path><ellipse cx="248.98" cy="414.97" rx="21.42" ry="10.81" style="fill: rgb(38, 50, 56); transform-origin: 248.98px 414.97px;" id="elrw9onlbfqlp" class="animable"></ellipse><path d="M249,426.29c-12.09,0-21.92-5.08-21.92-11.32s9.83-11.31,21.92-11.31S270.9,408.74,270.9,415,261.07,426.29,249,426.29Zm0-21.63c-11.54,0-20.92,4.63-20.92,10.31s9.38,10.32,20.92,10.32S269.9,420.66,269.9,415,260.52,404.66,249,404.66Z" style="fill: rgb(38, 50, 56); transform-origin: 248.99px 414.975px;" id="elk10mvp8uyqt" class="animable"></path><path d="M351.09,108.15A85.06,85.06,0,0,0,344.26,96c-19.64-29-60.1-51.79-94.86-49.63C214.64,44.22,174.18,67,154.54,96a85.06,85.06,0,0,0-6.83,12.14c-9.69,21.09-10.28,44.72-8.17,68.35,1,11.37,1,27.53,6.08,38,1,2.15,11.93,25.31,11.93,45.24s6.23,65.17,20.76,76.49,34.77,28,49.3,30.16a143.84,143.84,0,0,0,43.58,0c14.53-2.16,34.77-18.85,49.3-30.16s20.76-56.56,20.76-76.49,10.89-43.09,11.93-45.24c5.06-10.5,5.07-26.66,6.08-38C361.37,152.87,360.78,129.24,351.09,108.15Z" style="fill: rgb(255, 255, 255); transform-origin: 249.4px 207.134px;" id="elcfruxpofvpi" class="animable"></path><path d="M250.63,368.59h-1.24a137.23,137.23,0,0,1-21.86-1.67c-13.45-2-31.39-16.05-45.8-27.34L178,336.65c-14.62-11.38-20.95-56.42-20.95-76.88,0-19.77-10.67-42.5-11.88-45-4.11-8.52-4.9-20.48-5.6-31-.17-2.54-.33-4.93-.53-7.16-1.77-19.77-2.43-45.43,8.22-68.6a85,85,0,0,1,6.87-12.21c20.63-30.52,61.61-51.94,95.3-49.85,33.63-2.1,74.61,19.33,95.24,49.85a85,85,0,0,1,6.87,12.21h0c10.65,23.17,10,48.83,8.22,68.6-.2,2.23-.36,4.62-.53,7.16-.7,10.55-1.49,22.52-5.6,31-1.21,2.53-11.88,25.24-11.88,45,0,20.46-6.33,65.5-20.95,76.88l-3.73,2.92c-14.42,11.29-32.35,25.35-45.8,27.34A143.19,143.19,0,0,1,250.63,368.59Zm-1.24-1a136.18,136.18,0,0,0,21.73-1.66c13.19-1.95,31-15.92,45.33-27.14l3.73-2.92c14.36-11.17,20.57-55.79,20.57-76.09,0-20,10.75-42.91,12-45.46,4-8.35,4.81-20.21,5.51-30.68.16-2.54.32-4.94.52-7.18,1.76-19.64,2.42-45.14-8.13-68.09a84.51,84.51,0,0,0-6.79-12.07c-20.45-30.25-61-51.48-94.41-49.41C216,44.8,175.41,66,155,96.29a84.57,84.57,0,0,0-6.8,12.07c-10.54,23-9.88,48.45-8.12,68.09.19,2.24.35,4.64.52,7.19.7,10.46,1.49,22.32,5.51,30.67,1.23,2.55,12,25.46,12,45.46,0,20.3,6.21,64.92,20.57,76.09l3.73,2.92C196.67,350,214.49,364,227.68,365.92A136.05,136.05,0,0,0,249.39,367.58Z" style="fill: rgb(38, 50, 56); transform-origin: 249.402px 207.2px;" id="elb67ouhme1rg" class="animable"></path><path d="M293.73,284.63c-3.61-8.27-23.29-24-23.29-24L248.78,249l-21.65,11.68s-19.68,15.7-23.3,24,10.26,19.8,10.26,19.8h70.62S297.35,292.9,293.73,284.63Z" style="fill: rgb(255, 255, 255); transform-origin: 248.805px 276.74px;" id="eljuj86b1naga" class="animable"></path><path d="M284.71,304.92H214.09a.54.54,0,0,1-.32-.11c-.58-.48-14.12-11.87-10.4-20.38,3.63-8.29,22.64-23.52,23.45-24.16l21.73-11.73a.49.49,0,0,1,.47,0l21.65,11.68c.89.69,19.9,15.92,23.52,24.21,3.72,8.49-8.62,19.88-9.15,20.36A.46.46,0,0,1,284.71,304.92Zm0-.5h0Zm-70.43-.5h70.23c1.35-1.28,12-11.71,8.77-19.09-3.53-8.06-23-23.63-23.15-23.78l-21.35-11.5L227.37,261.1c-.12.1-19.55,15.67-23.08,23.73C201.05,292.23,212.86,302.71,214.28,303.92Z" style="fill: rgb(38, 50, 56); transform-origin: 248.806px 276.7px;" id="el8htfmcpcq3s" class="animable"></path><path d="M248.85,298.91a.47.47,0,0,1-.25-.07l-9.81-5.75a.5.5,0,0,1-.24-.5l3.54-28.69a.5.5,0,0,1,.49-.44h6.27a.5.5,0,0,1,.5.5v34.45a.47.47,0,0,1-.25.43A.43.43,0,0,1,248.85,298.91Zm-9.27-6.52,8.77,5.15V264.46H243Z" style="fill: rgb(38, 50, 56); transform-origin: 243.948px 281.185px;" id="elto42da35b28" class="animable"></path><path d="M248.85,298.91a.42.42,0,0,1-.24-.07.48.48,0,0,1-.26-.43V264a.5.5,0,0,1,.5-.5h6.28a.5.5,0,0,1,.49.44l3.54,28.69a.5.5,0,0,1-.24.5l-9.81,5.75A.48.48,0,0,1,248.85,298.91Zm.5-34.45v33.08l8.78-5.15-3.45-27.93Z" style="fill: rgb(38, 50, 56); transform-origin: 253.757px 281.208px;" id="ely2d7fr6li0j" class="animable"></path><path d="M214.09,304.43h70.62s-22.28-12.72-26-11.77-9.43,4.2-9.43,4.2-6.9-4.67-10.2-4.2S214.09,304.43,214.09,304.43Z" style="fill: rgb(47, 178, 200); transform-origin: 249.4px 298.52px;" id="elngh8wjbjtni" class="animable"></path><path d="M284.71,304.92H214.09a.48.48,0,0,1-.48-.38.5.5,0,0,1,.25-.56c.89-.46,21.77-11.34,25.11-11.82,3.11-.45,9,3.25,10.29,4.11a46.47,46.47,0,0,1,9.29-4.1c3.84-.94,24.11,10.51,26.4,11.82a.49.49,0,0,1,.24.56A.5.5,0,0,1,284.71,304.92Zm-68.57-1h66.67c-8.89-5-21.56-11.4-24-10.78-3.66.91-9.24,4.12-9.3,4.15a.51.51,0,0,1-.53,0c-.06,0-6.78-4.56-9.85-4.12C236.77,293.49,224,299.88,216.14,303.92Z" style="fill: rgb(38, 50, 56); transform-origin: 249.401px 298.518px;" id="el37w3gbv8dqy" class="animable"></path><path d="M214.09,304.43s13,15.34,34.69,15.34,35.93-15.34,35.93-15.34Z" style="fill: rgb(47, 178, 200); transform-origin: 249.4px 312.1px;" id="el3nixdycdr7w" class="animable"></path><path d="M248.78,320.27c-21.68,0-34.94-15.37-35.07-15.52a.51.51,0,0,1,.38-.83h70.62a.5.5,0,0,1,.36.84C284.93,304.92,270.45,320.27,248.78,320.27Zm-33.54-15.35c3.07,3.17,15.24,14.35,33.54,14.35s31.35-11.16,34.71-14.35Z" style="fill: rgb(38, 50, 56); transform-origin: 249.4px 312.095px;" id="elud89rvp9qvs" class="animable"></path><path d="M178.66,216.87a27.67,27.67,0,0,1-26-3.08L144,207.72l-.81-.13a39.13,39.13,0,0,0,2.48,6.94c1,2.15,11.93,25.31,11.93,45.24s6.23,65.17,20.76,76.49c9,7,20.17,16.06,30.83,22.46-.17-7.35-.9-19.15-3.62-26.29-4.17-11-29.22-32.87-26.61-54.27,1.08-8.91,6.79-16.83,13.07-23a62,62,0,0,0,18.73-44.08v-1.53l-11.45-.76Z" style="fill: rgb(38, 50, 56); transform-origin: 176.975px 283.155px;" id="elkmz43miti9s" class="animable"></path><path d="M209.14,359.22a.48.48,0,0,1-.26-.07c-9.26-5.56-18.77-13-27.16-19.6l-3.72-2.9c-14.62-11.38-20.95-56.42-20.95-76.88,0-19.77-10.67-42.5-11.88-45a38.89,38.89,0,0,1-2.52-7,.49.49,0,0,1,.12-.46.51.51,0,0,1,.45-.16l.81.13a.52.52,0,0,1,.2.09l8.68,6.07a27.15,27.15,0,0,0,25.57,3h0l20.59-8.11a.54.54,0,0,1,.22,0l11.45.76a.5.5,0,0,1,.47.5v1.53a62.17,62.17,0,0,1-18.88,44.43c-7.66,7.57-12,15.22-12.93,22.74-1.75,14.41,9.08,28.9,17.79,40.53,4,5.35,7.45,10,8.8,13.5,2.66,7,3.46,18.25,3.65,26.46a.48.48,0,0,1-.25.44A.43.43,0,0,1,209.14,359.22Zm-65.3-151a36.78,36.78,0,0,0,2.23,6.06c1.23,2.55,12,25.46,12,45.46,0,20.3,6.21,64.92,20.57,76.09l3.71,2.91c8.14,6.37,17.32,13.57,26.29,19.05-.2-6.81-.94-18.3-3.57-25.21-1.3-3.41-4.71-8-8.66-13.26-8.81-11.78-19.78-26.44-18-41.25,1-7.75,5.39-15.6,13.22-23.33a61.17,61.17,0,0,0,18.58-43.72V210l-10.87-.72-20.49,8.07-.19-.47.19.47a28.1,28.1,0,0,1-26.51-3.14Z" style="fill: rgb(38, 50, 56); transform-origin: 176.922px 283.192px;" id="el0u1lkffk1dfb" class="animable"></path><path d="M319.81,216.87a27.69,27.69,0,0,0,26-3.08l8.68-6.07.81-.13a39.93,39.93,0,0,1-2.48,6.94c-1,2.15-11.94,25.31-11.94,45.24s-6.22,65.17-20.75,76.49c-9,7-20.18,16.06-30.84,22.46.18-7.35.9-19.15,3.63-26.29,4.17-11,29.22-32.87,26.61-54.27-1.09-8.91-6.79-16.83-13.07-23a62,62,0,0,1-18.73-44.08v-1.53l11.45-.76Z" style="fill: rgb(38, 50, 56); transform-origin: 321.515px 283.155px;" id="el343o5vu4prt" class="animable"></path><path d="M289.33,359.22a.47.47,0,0,1-.25-.07.5.5,0,0,1-.25-.44c.2-8.21,1-19.46,3.66-26.46,1.35-3.54,4.8-8.15,8.8-13.5,8.7-11.63,19.54-26.12,17.78-40.53-.92-7.52-5.27-15.17-12.92-22.74a62.13,62.13,0,0,1-18.88-44.43v-1.53a.49.49,0,0,1,.46-.5l11.45-.76a.54.54,0,0,1,.22,0l20.6,8.11h0a27.12,27.12,0,0,0,25.56-3l8.68-6.07a.56.56,0,0,1,.21-.09l.81-.13a.49.49,0,0,1,.45.16.52.52,0,0,1,.11.46,39.69,39.69,0,0,1-2.51,7c-1.22,2.53-11.89,25.25-11.89,45,0,20.46-6.32,65.5-20.95,76.88l-3.71,2.91c-8.4,6.57-17.91,14-27.17,19.59A.48.48,0,0,1,289.33,359.22ZM288.27,210v1.06a61.17,61.17,0,0,0,18.58,43.72c7.82,7.73,12.27,15.58,13.21,23.33,1.81,14.81-9.16,29.47-18,41.25-4,5.29-7.37,9.85-8.67,13.26-2.63,6.91-3.36,18.4-3.56,25.21,9-5.48,18.15-12.68,26.28-19.05l3.72-2.91c14.35-11.17,20.56-55.79,20.56-76.09,0-20,10.76-42.91,12-45.46a37.12,37.12,0,0,0,2.23-6.06l-8.5,5.95a28.16,28.16,0,0,1-26.51,3.14l-20.49-8.07Z" style="fill: rgb(38, 50, 56); transform-origin: 321.552px 283.147px;" id="elmx306pjo3lh" class="animable"></path><path d="M350.82,234l-22.44,16.46a10.23,10.23,0,0,0-3.59,11.71l.71,2a10.26,10.26,0,0,0,17.72,2.88l7-8.9Z" style="fill: rgb(255, 255, 255); transform-origin: 337.505px 252.482px;" id="eld0u73h01gi8" class="animable"></path><path d="M335.21,271.51a10.87,10.87,0,0,1-1.78-.15,10.63,10.63,0,0,1-8.4-7l-.71-2a10.81,10.81,0,0,1,3.76-12.28l22.45-16.45a.47.47,0,0,1,.52,0,.48.48,0,0,1,.27.45l-.63,24.16a.52.52,0,0,1-.11.29l-7,8.89A10.6,10.6,0,0,1,335.21,271.51ZM350.3,235l-21.63,15.85A9.8,9.8,0,0,0,325.26,262l.71,2a9.75,9.75,0,0,0,16.85,2.74l6.87-8.77Z" style="fill: rgb(38, 50, 56); transform-origin: 337.513px 252.531px;" id="eliltkzqtiae" class="animable"></path><path d="M149.35,234l22.45,16.46a10.26,10.26,0,0,1,3.59,11.71l-.72,2A10.25,10.25,0,0,1,157,267.08l-7-8.9Z" style="fill: rgb(255, 255, 255); transform-origin: 162.667px 252.476px;" id="el07vka7f42c2" class="animable"></path><path d="M165,271.51a10.57,10.57,0,0,1-8.39-4.13l-7-8.89a.46.46,0,0,1-.11-.29L148.85,234a.5.5,0,0,1,.27-.45.49.49,0,0,1,.53,0l22.44,16.45a10.81,10.81,0,0,1,3.77,12.28l-.72,2a10.58,10.58,0,0,1-8.4,7A10.69,10.69,0,0,1,165,271.51ZM150.49,258l6.86,8.77A9.74,9.74,0,0,0,174.2,264l.72-2a9.81,9.81,0,0,0-3.42-11.14L149.88,235Z" style="fill: rgb(38, 50, 56); transform-origin: 162.661px 252.491px;" id="elpk4z89s9ps8" class="animable"></path><path d="M156.8,237.68c-3.51-22.29-9.58-39.7-13.56-38.89l-6.1.4,3,18.64a196.29,196.29,0,0,0,2.32,22.77,192.84,192.84,0,0,0,4.78,22.27l2.69,17,6.1-.4C160,278.69,160.32,260,156.8,237.68Z" style="fill: rgb(255, 255, 255); transform-origin: 148.189px 239.316px;" id="elqn1e27cac9j" class="animable"></path><path d="M149.88,280.4a.51.51,0,0,1-.5-.42l-2.68-17a192,192,0,0,1-4.78-22.27,195.33,195.33,0,0,1-2.33-22.83l-2.94-18.58a.54.54,0,0,1,.1-.39.52.52,0,0,1,.36-.19l6.1-.4a2.19,2.19,0,0,1,1.7.46c4.07,2.83,9.28,19.17,12.39,38.85S161.05,279,156.07,280l-6.16.41Zm-12.16-80.75,2.86,18.1a197.23,197.23,0,0,0,2.33,22.77,194.44,194.44,0,0,0,4.76,22.22l2.63,16.63,5.64-.37c3.12-.64,4.08-17.74.37-41.24-3-19.13-8.16-35.54-12-38.19a1.35,1.35,0,0,0-1-.29Z" style="fill: rgb(38, 50, 56); transform-origin: 148.184px 239.353px;" id="ell90rdlos0g" class="animable"></path><path d="M150.71,238.08c3.51,22.29,3.14,41-.83,41.82s-10-16.61-13.56-38.9-3.15-41,.82-41.81S147.19,215.8,150.71,238.08Z" style="fill: rgb(38, 50, 56); transform-origin: 143.503px 239.545px;" id="elp4e2w615ziq" class="animable"></path><path d="M147.5,238.7c-2.08-13.18-5.67-23.48-8-23l-3.61.24,1.74,11A116.65,116.65,0,0,0,139,240.42a114,114,0,0,0,2.83,13.18l1.58,10.06,3.61-.23C149.36,263,149.58,251.88,147.5,238.7Z" style="fill: rgb(255, 255, 255); transform-origin: 142.409px 239.672px;" id="el2wv84j8hv0f" class="animable"></path><path d="M143.4,264.16a.49.49,0,0,1-.49-.42l-1.59-10.07a111.85,111.85,0,0,1-2.82-13.17A115.81,115.81,0,0,1,137.11,227l-1.73-11a.54.54,0,0,1,.1-.39.5.5,0,0,1,.36-.18l3.61-.24a1.49,1.49,0,0,1,1.13.31c2.49,1.73,5.54,11.23,7.41,23.11h0c1.55,9.78,2.58,24.59-.88,25.3l-3.67.24Zm-7-47.76,1.66,10.48a115.61,115.61,0,0,0,1.37,13.47,113.84,113.84,0,0,0,2.82,13.11l1.53,9.67,3.15-.2c1.51-.31,2.31-9.66,0-24.15-2-12.83-5.12-21.14-7-22.45a.56.56,0,0,0-.43-.14Z" style="fill: rgb(38, 50, 56); transform-origin: 142.402px 239.668px;" id="elf2d25azixlg" class="animable"></path><path d="M143.89,238.94c2.08,13.18,1.86,24.25-.49,24.72s-5.94-9.82-8-23-1.86-24.25.49-24.72S141.81,225.76,143.89,238.94Z" style="fill: rgb(38, 50, 56); transform-origin: 139.649px 239.8px;" id="elj0wvjut6i2" class="animable"></path><path d="M143.24,264.18a1.65,1.65,0,0,1-.94-.33c-2.49-1.73-5.54-11.23-7.41-23.11-1.54-9.78-2.58-24.59.88-25.3a1.6,1.6,0,0,1,1.21.31c2.49,1.73,5.53,11.23,7.41,23.11h0c1.54,9.78,2.58,24.59-.89,25.29A1.09,1.09,0,0,1,143.24,264.18ZM136,216.42H136c-1.58.32-2.38,9.66-.09,24.15,2,12.84,5.11,21.14,7,22.45a.56.56,0,0,0,.43.14c1.58-.32,2.39-9.66.1-24.16h0c-2-12.82-5.11-21.13-7-22.44A.71.71,0,0,0,136,216.42Z" style="fill: rgb(38, 50, 56); transform-origin: 139.639px 239.801px;" id="elxmkfbn5gi5" class="animable"></path><ellipse cx="204.58" cy="210.19" rx="40.36" ry="32.73" style="fill: rgb(255, 255, 255); transform-origin: 204.58px 210.19px;" id="el6iy3vtyac3s" class="animable"></ellipse><path d="M204.58,243.43c-22.53,0-40.86-14.91-40.86-33.24S182.05,177,204.58,177s40.86,14.91,40.86,33.23S227.11,243.43,204.58,243.43Zm0-65.47c-22,0-39.86,14.46-39.86,32.23s17.88,32.24,39.86,32.24,39.86-14.46,39.86-32.24S226.56,178,204.58,178Z" style="fill: rgb(38, 50, 56); transform-origin: 204.58px 210.215px;" id="elsjxbk0u70zk" class="animable"></path><path d="M225,212.73a2.46,2.46,0,0,0,.24-3.89c-3.05-2.63-6.81-6.91-15.95-7.16-8.11-.23-15.21,3.55-17.5,6.51a3.6,3.6,0,0,0,1.22,5.39,36.39,36.39,0,0,0,15.54,3.92A27.54,27.54,0,0,0,225,212.73Z" style="fill: rgb(47, 178, 200); transform-origin: 208.566px 209.593px;" id="elwq6jzr00g9" class="animable"></path><path d="M209.45,218h-.9a36.86,36.86,0,0,1-15.76-4,4.16,4.16,0,0,1-2.14-2.78,4.06,4.06,0,0,1,.75-3.37c2.27-2.93,9.33-6.95,17.91-6.7,8.38.23,12.38,3.82,15.3,6.43.34.3.65.59,1,.85a2.93,2.93,0,0,1,1,2.38,3,3,0,0,1-1.3,2.3A28.12,28.12,0,0,1,209.45,218Zm-.85-15.84c-7.85,0-14.39,3.72-16.41,6.32a3.12,3.12,0,0,0,1.06,4.65A36,36,0,0,0,208.58,217a27.14,27.14,0,0,0,16.15-4.69h0a2,2,0,0,0,.86-1.53,1.9,1.9,0,0,0-.67-1.56l-1-.86c-3-2.66-6.65-6-14.67-6.18Z" style="fill: rgb(38, 50, 56); transform-origin: 208.584px 209.569px;" id="el6gl4l8ms98f" class="animable"></path><path d="M342,237.68c3.52-22.29,9.59-39.7,13.56-38.89l6.1.4-2.94,18.64a194.3,194.3,0,0,1-2.33,22.77,190.76,190.76,0,0,1-4.78,22.27l-2.68,17-6.1-.4C338.9,278.69,338.52,260,342,237.68Z" style="fill: rgb(255, 255, 255); transform-origin: 350.639px 239.316px;" id="elp59mjquv99m" class="animable"></path><path d="M349,280.4h0l-6.09-.4c-5-1-4.42-22.6-1.29-42.4h0c3.1-19.68,8.31-36,12.39-38.85a2.22,2.22,0,0,1,1.76-.45l6,.39a.52.52,0,0,1,.36.19.5.5,0,0,1,.11.39l-2.95,18.64a209.22,209.22,0,0,1-7.12,45.1l-2.67,17A.5.5,0,0,1,349,280.4Zm6.38-81.14a1.48,1.48,0,0,0-.84.31c-3.81,2.65-9,19.07-12,38.19h0c-3.71,23.5-2.75,40.6.43,41.25l5.58.36,2.61-16.57a208.33,208.33,0,0,0,7.1-45l2.86-18.16-5.55-.37ZM342,237.68h0Z" style="fill: rgb(38, 50, 56); transform-origin: 350.728px 239.334px;" id="elj4tuhywnpoh" class="animable"></path><g id="elcydadvfaeyi"><ellipse cx="355.33" cy="239.54" rx="40.86" ry="7.33" style="fill: rgb(38, 50, 56); transform-origin: 355.33px 239.54px; transform: rotate(-81.12deg);" class="animable"></ellipse></g><path d="M351.35,238.7c2.07-13.18,5.67-23.48,8-23l3.6.24-1.74,11a116.46,116.46,0,0,1-1.37,13.46A114,114,0,0,1,357,253.6l-1.59,10.06-3.6-.23C349.49,263,349.27,251.88,351.35,238.7Z" style="fill: rgb(255, 255, 255); transform-origin: 356.435px 239.672px;" id="el7jbe60rnuae" class="animable"></path><path d="M355.44,264.16h0l-3.61-.24c-3.53-.71-2.49-15.52-.95-25.3,1.88-11.88,4.92-21.38,7.41-23.11a1.54,1.54,0,0,1,1.2-.3l3.55.23a.5.5,0,0,1,.46.57l-1.74,11a118.26,118.26,0,0,1-1.38,13.46,116,116,0,0,1-2.84,13.23l-1.57,10A.5.5,0,0,1,355.44,264.16Zm3.79-48a.72.72,0,0,0-.4.14c-1.88,1.31-5,9.62-7,22.45h0c-2.29,14.49-1.49,23.84.09,24.16l3.09.2,1.52-9.62a116.13,116.13,0,0,0,2.82-13.17,113.8,113.8,0,0,0,1.37-13.41l1.66-10.54-3.06-.2Zm-7.88,22.51h0Z" style="fill: rgb(38, 50, 56); transform-origin: 356.479px 239.675px;" id="el8o0qjz8gbjg" class="animable"></path><path d="M355,238.94c-2.08,13.18-1.86,24.25.49,24.72s5.94-9.82,8-23,1.86-24.25-.49-24.72S357,225.76,355,238.94Z" style="fill: rgb(38, 50, 56); transform-origin: 359.241px 239.8px;" id="elt00z1e5jat7" class="animable"></path><path d="M355.6,264.18l-.26,0c-3.46-.7-2.43-15.51-.88-25.29h0c1.87-11.88,4.92-21.38,7.41-23.11a1.57,1.57,0,0,1,1.2-.31c3.47.71,2.43,15.52.89,25.3-1.88,11.88-4.93,21.38-7.42,23.11A1.63,1.63,0,0,1,355.6,264.18ZM355.45,239c-2.29,14.5-1.49,23.84.09,24.16A.55.55,0,0,0,356,263c1.88-1.3,5-9.61,7-22.45,2.28-14.49,1.48-23.83-.1-24.15a.56.56,0,0,0-.43.14c-1.88,1.31-5,9.62-7,22.44Z" style="fill: rgb(38, 50, 56); transform-origin: 359.208px 239.816px;" id="el6ufp6azdivy" class="animable"></path><ellipse cx="301.56" cy="210.19" rx="40.36" ry="32.73" style="fill: rgb(255, 255, 255); transform-origin: 301.56px 210.19px;" id="el4zth7vunegv" class="animable"></ellipse><path d="M301.56,243.43c-22.53,0-40.86-14.91-40.86-33.24S279,177,301.56,177s40.86,14.91,40.86,33.23S324.09,243.43,301.56,243.43Zm0-65.47c-22,0-39.86,14.46-39.86,32.23s17.88,32.24,39.86,32.24,39.86-14.46,39.86-32.24S323.54,178,301.56,178Z" style="fill: rgb(38, 50, 56); transform-origin: 301.56px 210.215px;" id="elydauz9phiko" class="animable"></path><path d="M281.1,212.73a2.46,2.46,0,0,1-.24-3.89c3.05-2.63,6.81-6.91,15.95-7.16,8.11-.23,15.21,3.55,17.5,6.51a3.6,3.6,0,0,1-1.23,5.39,36.31,36.31,0,0,1-15.54,3.92A27.5,27.5,0,0,1,281.1,212.73Z" style="fill: rgb(47, 178, 200); transform-origin: 297.533px 209.593px;" id="elmu30crregnh" class="animable"></path><path d="M296.66,218a28.18,28.18,0,0,1-15.85-4.87h0a3,3,0,0,1-1.29-2.3,2.93,2.93,0,0,1,1-2.38c.31-.26.63-.55,1-.85,2.92-2.61,6.92-6.2,15.3-6.43,8.58-.25,15.65,3.77,17.91,6.7a4.06,4.06,0,0,1,.75,3.37,4.13,4.13,0,0,1-2.14,2.78,36.85,36.85,0,0,1-15.75,4Zm.85-15.84h-.69c-8,.22-11.7,3.52-14.66,6.18-.34.3-.66.59-1,.86a1.89,1.89,0,0,0-.66,1.56,1.94,1.94,0,0,0,.86,1.53h0A27.19,27.19,0,0,0,297.53,217a36,36,0,0,0,15.32-3.86,3.11,3.11,0,0,0,1.62-2.11,3,3,0,0,0-.56-2.54C311.9,205.89,305.36,202.17,297.51,202.17Z" style="fill: rgb(38, 50, 56); transform-origin: 297.546px 209.589px;" id="elj79wmp0gmvr" class="animable"></path><circle cx="236.4" cy="260.66" r="9.28" style="fill: rgb(255, 255, 255); transform-origin: 236.4px 260.66px;" id="elg4u23b5rbnk" class="animable"></circle><path d="M236.4,270.43a9.78,9.78,0,1,1,9.78-9.77A9.78,9.78,0,0,1,236.4,270.43Zm0-18.55a8.78,8.78,0,1,0,8.78,8.78A8.79,8.79,0,0,0,236.4,251.88Z" style="fill: rgb(38, 50, 56); transform-origin: 236.4px 260.65px;" id="elju6ug0v9dh" class="animable"></path><circle cx="262.39" cy="260.66" r="9.28" style="fill: rgb(255, 255, 255); transform-origin: 262.39px 260.66px;" id="elpgy8zprjqfn" class="animable"></circle><path d="M262.39,270.43a9.78,9.78,0,1,1,9.78-9.77A9.78,9.78,0,0,1,262.39,270.43Zm0-18.55a8.78,8.78,0,1,0,8.78,8.78A8.79,8.79,0,0,0,262.39,251.88Z" style="fill: rgb(38, 50, 56); transform-origin: 262.39px 260.65px;" id="elx7zirubnokm" class="animable"></path><path d="M248.9,270.73h0A9.94,9.94,0,0,1,239,260.8V199.46h19.86V260.8A9.94,9.94,0,0,1,248.9,270.73Z" style="fill: rgb(255, 255, 255); transform-origin: 248.93px 235.095px;" id="el9mvz2uxy7h" class="animable"></path><path d="M248.9,271.23a10.44,10.44,0,0,1-10.43-10.43V199.46a.5.5,0,0,1,.5-.5h19.86a.5.5,0,0,1,.5.5V260.8A10.44,10.44,0,0,1,248.9,271.23ZM239.47,200V260.8a9.43,9.43,0,0,0,18.86,0V200Z" style="fill: rgb(38, 50, 56); transform-origin: 248.9px 235.095px;" id="el2y0vq50r7a9" class="animable"></path><path d="M351.09,108.15A85.06,85.06,0,0,0,344.26,96c-19.64-29-60.1-51.79-94.86-49.63C214.64,44.22,174.18,67,154.54,96a85.06,85.06,0,0,0-6.83,12.14,89.67,89.67,0,0,0-4.32,11.46c13.39,5.37,33.63,17.32,55.37,43.88C236.94,210.12,239,222.44,251.39,223c12.38-.54,14.45-12.86,52.63-59.49,19.91-24.32,38.55-36.39,51.84-42.37A92.26,92.26,0,0,0,351.09,108.15Z" style="fill: rgb(47, 178, 200); transform-origin: 249.625px 134.614px;" id="el0agyyy3m58x" class="animable"></path><path d="M251.41,223.48c-8.12-.35-11.94-5.57-23.3-21.08-6.63-9.07-15.72-21.48-29.74-38.6-21.77-26.59-42-38.45-55.17-43.73a.49.49,0,0,1-.29-.61,90.71,90.71,0,0,1,4.35-11.52,85,85,0,0,1,6.87-12.21c20.63-30.52,61.61-51.94,95.3-49.85,33.63-2.1,74.61,19.33,95.24,49.85a85,85,0,0,1,6.87,12.21h0a92.61,92.61,0,0,1,4.8,13,.5.5,0,0,1-.28.59c-12.34,5.56-31.33,17.41-51.65,42.23-14,17.12-23.11,29.53-29.74,38.6C263.31,217.91,259.49,223.13,251.41,223.48ZM144,119.32c13.27,5.4,33.48,17.38,55.15,43.85,14,17.14,23.13,29.56,29.77,38.64,11.14,15.22,14.9,20.34,22.49,20.67,7.55-.33,11.31-5.45,22.45-20.67,6.64-9.08,15.74-21.5,29.77-38.64,20.24-24.71,39.17-36.65,51.62-42.33a89.85,89.85,0,0,0-4.62-12.48,84.51,84.51,0,0,0-6.79-12.07c-20.45-30.25-61-51.48-94.41-49.41C216,44.8,175.41,66,155,96.29a84.57,84.57,0,0,0-6.8,12.07A90.9,90.9,0,0,0,144,119.32Z" style="fill: rgb(38, 50, 56); transform-origin: 249.622px 134.609px;" id="el4iph9zggm1f" class="animable"></path><circle cx="250.77" cy="134.61" r="50.46" style="fill: rgb(38, 50, 56); transform-origin: 250.77px 134.61px;" id="elwsfg0wsobzi" class="animable"></circle><path d="M250.77,185.56a51,51,0,1,1,51-50.95A51,51,0,0,1,250.77,185.56Zm0-100.91a50,50,0,1,0,50,50A50,50,0,0,0,250.77,84.65Z" style="fill: rgb(38, 50, 56); transform-origin: 250.77px 134.56px;" id="eljut5plveql" class="animable"></path><path d="M251.39,137.76c12.38-.54,14.45-12.87,52.63-59.5q5.21-6.35,10.27-11.61C294.68,53.28,271,45,249.4,46.38,228.73,45.1,206.05,52.62,186.93,65c3.87,4,7.83,8.34,11.83,13.23C236.94,124.89,239,137.22,251.39,137.76Z" style="fill: rgb(255, 255, 255); transform-origin: 250.61px 91.9952px;" id="el1xsqwqahkya" class="animable"></path><path d="M251.39,138.26h0c-8.08-.35-11.9-5.58-23.26-21.09-6.63-9.06-15.72-21.47-29.74-38.59-3.83-4.68-7.8-9.12-11.8-13.2a.51.51,0,0,1-.13-.41.45.45,0,0,1,.22-.36c20.22-13.13,43.1-20,62.77-18.73C270,44.6,293.72,52,314.57,66.23a.51.51,0,0,1,.08.76c-3.49,3.65-6.93,7.54-10.24,11.59-14,17.12-23.11,29.53-29.74,38.59-11.36,15.51-15.18,20.74-23.26,21.09ZM187.72,65.12c3.87,4,7.71,8.29,11.43,12.83,14,17.13,23.13,29.56,29.77,38.63,11.13,15.21,14.89,20.34,22.47,20.68,7.58-.34,11.34-5.47,22.47-20.68,6.64-9.07,15.74-21.5,29.77-38.63,3.2-3.91,6.52-7.68,9.89-11.22C293,52.85,269.63,45.63,249.43,46.88,230.08,45.67,207.63,52.32,187.72,65.12Z" style="fill: rgb(38, 50, 56); transform-origin: 250.62px 91.9952px;" id="el5e78lkv4xae" class="animable"></path><path d="M284.73,65.28a4.06,4.06,0,0,1-1.32-.22c-36.65-12.77-64.85-.26-65.13-.14A4,4,0,1,1,215,57.64c1.26-.57,31.43-14,71.07-.13a4,4,0,0,1-1.31,7.77Z" style="fill: rgb(38, 50, 56); transform-origin: 250.574px 58.3165px;" id="elixibpsc1qns" class="animable"></path><path d="M274.73,83.24a4.06,4.06,0,0,1-1.32-.22c-25.28-8.81-44.94-.22-45.14-.13A4,4,0,0,1,225,75.6c.91-.41,22.63-10,51.07-.14a4,4,0,0,1-1.31,7.78Z" style="fill: rgb(38, 50, 56); transform-origin: 250.79px 77.1313px;" id="el4q7nr4wpx0u" class="animable"></path><path d="M263.88,101.12a4.06,4.06,0,0,1-1.32-.22c-13.13-4.58-23.35-.17-23.45-.13a4,4,0,0,1-3.3-7.29c.53-.24,13.1-5.81,29.39-.13a4,4,0,0,1-1.32,7.77Z" style="fill: rgb(38, 50, 56); transform-origin: 250.661px 95.966px;" id="elx728p9knuys" class="animable"></path><path d="M344.86,97c-.2-.32-.39-.63-.6-.94a99.65,99.65,0,0,0-10.68-13.13c-14.52,11.13-35.37,28.76-49.7,47.87a9,9,0,1,0,14.4,10.8C311.39,124.07,331.19,107.42,344.86,97Z" style="fill: rgb(38, 50, 56); transform-origin: 313.47px 114.065px;" id="ely6ixcctsvn" class="animable"></path><path d="M165.35,82.75A98.81,98.81,0,0,0,154.54,96c-.18.26-.34.52-.51.79,13.68,10.46,33.61,27.18,46.79,44.75a9,9,0,1,0,14.4-10.8C200.83,111.56,179.87,93.87,165.35,82.75Z" style="fill: rgb(38, 50, 56); transform-origin: 185.525px 113.945px;" id="eld7qxv7tlejs" class="animable"></path><path d="M281,363.34l-13.57-32.21H232.77l-16.46,31.49a40.66,40.66,0,0,0,11.3,3.8,143.84,143.84,0,0,0,43.58,0A37.94,37.94,0,0,0,281,363.34Z" style="fill: rgb(47, 178, 200); transform-origin: 248.655px 349.605px;" id="elsqbrky8yme" class="animable"></path><path d="M250.63,368.59h-1.24a137.23,137.23,0,0,1-21.86-1.67,40.24,40.24,0,0,1-11.43-3.84.44.44,0,0,1-.26-.29.53.53,0,0,1,0-.39l16.45-31.49a.5.5,0,0,1,.45-.27h34.61a.49.49,0,0,1,.46.3l13.57,32.22a.51.51,0,0,1-.26.65,38.83,38.83,0,0,1-9.88,3.11A143.19,143.19,0,0,1,250.63,368.59Zm-1.24-1a136.12,136.12,0,0,0,21.73-1.66,36.64,36.64,0,0,0,9.17-2.84l-13.24-31.45h-34L217,362.4a39.18,39.18,0,0,0,10.68,3.52A136.05,136.05,0,0,0,249.39,367.58Z" style="fill: rgb(38, 50, 56); transform-origin: 248.609px 349.615px;" id="el6g9inkd3jf" class="animable"></path><path d="M257.34,118.46a6.73,6.73,0,1,0-6.73,6.73A6.73,6.73,0,0,0,257.34,118.46Z" style="fill: rgb(47, 178, 200); transform-origin: 250.61px 118.46px;" id="elvgb9s6c3xja" class="animable"></path><path d="M250.61,125.69a7.23,7.23,0,1,1,7.23-7.23A7.23,7.23,0,0,1,250.61,125.69Zm0-13.45a6.23,6.23,0,1,0,6.23,6.22A6.24,6.24,0,0,0,250.61,112.24Z" style="fill: rgb(38, 50, 56); transform-origin: 250.61px 118.46px;" id="elfbit3lnd3ce" class="animable"></path><path d="M172.75,381.83c-2.88,9.66-6.45,19.34-10.79,27.36,0,0,33.88,34.71,88.38,50.37C235.62,437.54,192,398.59,172.75,381.83Z" style="fill: rgb(255, 255, 255); transform-origin: 206.15px 420.695px;" id="elg8xqdb3qyej" class="animable"></path><path d="M250.34,460.06l-.14,0c-54-15.51-88.26-50.15-88.6-50.5a.52.52,0,0,1-.08-.59,145.26,145.26,0,0,0,10.75-27.26.5.5,0,0,1,.34-.34.5.5,0,0,1,.47.1c18.41,16,62.83,55.63,77.68,77.83a.5.5,0,0,1,0,.57A.49.49,0,0,1,250.34,460.06Zm-87.76-51c3.22,3.19,36,34.69,86.56,49.59-15.34-22.06-57.74-60-76.13-76A147.17,147.17,0,0,1,162.58,409.1Z" style="fill: rgb(38, 50, 56); transform-origin: 206.156px 420.705px;" id="elip9nnn94kgf" class="animable"></path><path d="M338.72,409.19c-4.34-8-7.91-17.7-10.79-27.36-19.28,16.76-62.87,55.71-77.59,77.73C304.84,443.9,338.72,409.19,338.72,409.19Z" style="fill: rgb(255, 255, 255); transform-origin: 294.53px 420.695px;" id="ele8l3diuc9p9" class="animable"></path><path d="M250.34,460.06a.49.49,0,0,1-.4-.21.5.5,0,0,1,0-.57c14.85-22.2,59.27-61.82,77.68-77.83a.5.5,0,0,1,.47-.1.5.5,0,0,1,.34.34A145.26,145.26,0,0,0,339.16,409a.52.52,0,0,1-.08.59c-.34.35-34.6,35-88.6,50.5Zm77.33-77.34c-18.39,16-60.79,53.91-76.13,76,50.52-14.9,83.34-46.4,86.56-49.59A147.17,147.17,0,0,1,327.67,382.72Z" style="fill: rgb(38, 50, 56); transform-origin: 294.534px 420.709px;" id="elbszicqquexq" class="animable"></path></g><defs>     <filter id="active" height="200%">         <feMorphology in="SourceAlpha" result="DILATED" operator="dilate" radius="2"></feMorphology>                <feFlood flood-color="#32DFEC" flood-opacity="1" result="PINK"></feFlood>        <feComposite in="PINK" in2="DILATED" operator="in" result="OUTLINE"></feComposite>        <feMerge>            <feMergeNode in="OUTLINE"></feMergeNode>            <feMergeNode in="SourceGraphic"></feMergeNode>        </feMerge>    </filter>    <filter id="hover" height="200%">        <feMorphology in="SourceAlpha" result="DILATED" operator="dilate" radius="2"></feMorphology>                <feFlood flood-color="#ff0000" flood-opacity="0.5" result="PINK"></feFlood>        <feComposite in="PINK" in2="DILATED" operator="in" result="OUTLINE"></feComposite>        <feMerge>            <feMergeNode in="OUTLINE"></feMergeNode>            <feMergeNode in="SourceGraphic"></feMergeNode>        </feMerge>            <feColorMatrix type="matrix" values="0   0   0   0   0                0   1   0   0   0                0   0   0   0   0                0   0   0   1   0 "></feColorMatrix>    </filter></defs></svg>